<?xml version="1.0" encoding="UTF-8" standalone="no"?>
<!-- Created with Inkscape (http://www.inkscape.org/) -->

<svg
   xmlns:osb="http://www.openswatchbook.org/uri/2009/osb"
   xmlns:dc="http://purl.org/dc/elements/1.1/"
   xmlns:cc="http://creativecommons.org/ns#"
   xmlns:rdf="http://www.w3.org/1999/02/22-rdf-syntax-ns#"
   xmlns:svg="http://www.w3.org/2000/svg"
   xmlns="http://www.w3.org/2000/svg"
   xmlns:sodipodi="http://sodipodi.sourceforge.net/DTD/sodipodi-0.dtd"
   xmlns:inkscape="http://www.inkscape.org/namespaces/inkscape"
   width="64px"
   height="64px"
   id="svg4796"
   version="1.1"
   inkscape:version="0.48.4 r9939"
   sodipodi:docname="New document 21">
  <defs
     id="defs4798">
    <filter
       id="filter4747"
       inkscape:collect="always">
      <feGaussianBlur
         id="feGaussianBlur4749"
         stdDeviation="0.44798716"
         inkscape:collect="always" />
    </filter>
    <linearGradient
       osb:paint="solid"
       id="linearGradient4490">
      <stop
         id="stop4492"
         offset="0"
         style="stop-color:#002958;stop-opacity:1;" />
    </linearGradient>
    <linearGradient
       osb:paint="solid"
       id="linearGradient4525">
      <stop
         id="stop4527"
         offset="0"
         style="stop-color:#000000;stop-opacity:1;" />
    </linearGradient>
  </defs>
  <sodipodi:namedview
     id="base"
     pagecolor="#ffffff"
     bordercolor="#666666"
     borderopacity="1.0"
     inkscape:pageopacity="0.0"
     inkscape:pageshadow="2"
     inkscape:zoom="5.5"
     inkscape:cx="28.818182"
     inkscape:cy="32"
     inkscape:current-layer="layer1"
     showgrid="true"
     inkscape:document-units="px"
     inkscape:grid-bbox="true"
     inkscape:window-width="1333"
     inkscape:window-height="744"
     inkscape:window-x="33"
     inkscape:window-y="24"
     inkscape:window-maximized="1" />
  <metadata
     id="metadata4801">
    <rdf:RDF>
      <cc:Work
         rdf:about="">
        <dc:format>image/svg+xml</dc:format>
        <dc:type
           rdf:resource="http://purl.org/dc/dcmitype/StillImage" />
        <dc:title></dc:title>
      </cc:Work>
    </rdf:RDF>
  </metadata>
  <g
     id="layer1"
     inkscape:label="Layer 1"
     inkscape:groupmode="layer">
    <g
       inkscape:label="Layer 1"
       id="layer1-2"
       transform="matrix(1.2,0,0,1.2,-6.4,-6.3999999)">
      <g
         transform="matrix(0.7976064,0,0,0.7976064,6.2676839,5.8593534)"
         id="g4770">
        <rect
           style="opacity:0.8515625;fill:#e7e9eb;fill-opacity:1;stroke:#485668;stroke-width:1.03600001;stroke-linecap:round;stroke-linejoin:round;stroke-miterlimit:4;stroke-opacity:0.67464115;stroke-dasharray:none;stroke-dashoffset:0;filter:url(#filter4747)"
           id="rect4523"
           width="46.963711"
           height="42.63372"
           x="8.7800674"
           y="11.457007" />
        <path
           style="fill:#0054b4;fill-opacity:1;fill-rule:nonzero;stroke:none"
           d="M 20.283205,45.244289 C 19.313698,44.853044 19.041378,43.628124 19.690431,42.577935 19.900105,42.238675 24.923669,37.115382 30.853907,31.192838 43.190856,18.871897 45.951906,16.400775 46.282621,16.0963 c 0.16462,-0.151558 0.235029,-0.197141 0.299311,-0.297712 0.13742,-0.214996 0.984225,-0.737648 1.504732,-0.737648 0.237535,0 0.609778,0.189364 0.827211,0.420809 0.570651,0.60743 0.464399,1.390327 -0.150125,2.187776 -0.284375,0.369025 -0.522017,0.662936 -0.545455,0.705219 -0.07278,0.131301 -1.679536,1.869283 -13.97448,14.304164 C 23.298667,43.748629 21.541344,45.5503 20.826094,45.407527 c -0.07821,-0.0063 -0.328589,-0.07676 -0.542889,-0.163238 z"
           id="path3972"
           inkscape:connector-curvature="0"
           sodipodi:nodetypes="cssssssssscc" />
        <path
           style="fill:#0068dc;fill-opacity:1;fill-rule:nonzero;stroke:none"
           d="M 17.272294,42.213424 C 16.867847,42.102466 16.712243,41.582507 16.920981,41.0395 17.096223,40.583631 40.874989,16.666051 42.587547,15.2231 c 1.695718,-1.428761 3.35399,-1.314381 2.255758,0.155593 -0.280343,0.375236 -4.734354,4.936793 -9.897802,10.136793 -5.163448,5.2 -10.978026,11.064403 -12.921283,13.032007 -3.434581,3.477613 -3.96023,3.883131 -4.751926,3.665931 z"
           id="path3974"
           inkscape:connector-curvature="0" />
        <path
           style="fill:#0067dc;fill-opacity:1;fill-rule:nonzero;stroke:none"
           d="m 22.394751,47.457561 c -0.06667,-0.06667 -0.176455,-0.333921 -0.176455,-0.627657 0,-0.465008 1.733902,-2.265522 13.409091,-13.924242 7.375,-7.364597 13.589615,-13.490916 13.810257,-13.614042 0.345615,-0.192864 0.437646,-0.171785 0.664582,0.152211 0.332993,0.475414 0.140255,1.223343 -0.523758,2.032457 -0.263891,0.321559 -6.169712,6.332379 -13.124046,13.357379 -12.218883,12.343046 -12.666941,12.772728 -13.318972,12.772728 -0.371101,0 -0.674032,-0.08217 -0.740699,-0.148834 z"
           id="path3976"
           inkscape:connector-curvature="0"
           sodipodi:nodetypes="csssssssc" />
        <path
           style="fill:#9a0000;fill-opacity:1;fill-rule:nonzero;stroke:none"
           d="m 13.681479,50.363163 c -0.209345,-0.209345 0.37937,-2.682177 0.804927,-3.785287 0.178122,-0.461719 0.364338,-1.053582 0.463972,-1.318182 0.209443,-0.556225 0.284304,-0.555048 1.341645,-0.110685 1.32015,0.554813 2.736144,2.483201 2.790336,3.630906 0.01552,0.328575 -1.483389,0.972657 -2.986167,1.283162 -0.5,0.10331 -1.211363,0.249586 -1.580807,0.325057 -0.369443,0.07547 -0.744701,0.06423 -0.833906,-0.02497 z"
           id="path3978"
           inkscape:connector-curvature="0"
           sodipodi:nodetypes="cssscssc" />
      </g>
    </g>
  </g>
</svg>
