<?xml version="1.0" encoding="UTF-8" standalone="no"?>
<!-- Created with Inkscape (http://www.inkscape.org/) -->

<svg
   xmlns:osb="http://www.openswatchbook.org/uri/2009/osb"
   xmlns:dc="http://purl.org/dc/elements/1.1/"
   xmlns:cc="http://creativecommons.org/ns#"
   xmlns:rdf="http://www.w3.org/1999/02/22-rdf-syntax-ns#"
   xmlns:svg="http://www.w3.org/2000/svg"
   xmlns="http://www.w3.org/2000/svg"
   xmlns:sodipodi="http://sodipodi.sourceforge.net/DTD/sodipodi-0.dtd"
   xmlns:inkscape="http://www.inkscape.org/namespaces/inkscape"
   width="64px"
   height="64px"
   id="svg4325"
   version="1.1"
   inkscape:version="0.48.4 r9939"
   sodipodi:docname="New document 19">
  <defs
     id="defs4327">
    <linearGradient
       id="linearGradient5108"
       osb:paint="solid">
      <stop
         style="stop-color:#000000;stop-opacity:1;"
         offset="0"
         id="stop5110" />
    </linearGradient>
    <inkscape:perspective
       sodipodi:type="inkscape:persp3d"
       inkscape:vp_x="0 : 32 : 1"
       inkscape:vp_y="0 : 1000 : 0"
       inkscape:vp_z="64 : 32 : 1"
       inkscape:persp3d-origin="32 : 21.333333 : 1"
       id="perspective4594" />
  </defs>
  <sodipodi:namedview
     id="base"
     pagecolor="#ffffff"
     bordercolor="#666666"
     borderopacity="1.0"
     inkscape:pageopacity="0.0"
     inkscape:pageshadow="2"
     inkscape:zoom="8"
     inkscape:cx="12.278789"
     inkscape:cy="31.882673"
     inkscape:current-layer="layer1"
     showgrid="true"
     inkscape:document-units="px"
     inkscape:grid-bbox="true"
     inkscape:window-width="1333"
     inkscape:window-height="744"
     inkscape:window-x="33"
     inkscape:window-y="24"
     inkscape:window-maximized="1" />
  <metadata
     id="metadata4330">
    <rdf:RDF>
      <cc:Work
         rdf:about="">
        <dc:format>image/svg+xml</dc:format>
        <dc:type
           rdf:resource="http://purl.org/dc/dcmitype/StillImage" />
        <dc:title></dc:title>
      </cc:Work>
    </rdf:RDF>
  </metadata>
  <g
     id="layer1"
     inkscape:label="Layer 1"
     inkscape:groupmode="layer">
    <g
       id="text3909-47"
       style="font-size:8.9032917px;font-style:normal;font-weight:normal;line-height:0%;letter-spacing:0px;word-spacing:0px;fill:#3329f2;fill-opacity:1;stroke:none;font-family:Sans"
       transform="matrix(1.5149454,0,0,1.1426283,-15.519186,-12.003668)">
      <path
         inkscape:connector-curvature="0"
         id="path4198"
         style="font-size:35.61316681px;font-variant:normal;font-stretch:normal;text-align:center;line-height:0%;text-anchor:middle;fill:#28568a;fill-opacity:1;stroke:none;font-family:Matchbook;-inkscape-font-specification:Matchbook"
         d="m 26.267071,25.489804 c 0.142446,1.4e-5 0.261157,0.05937 0.356131,0.178066 0.118704,0.09498 0.17806,0.225564 0.178066,0.391745 -6e-6,0.142466 -0.05936,0.273047 -0.178066,0.391745 -0.09497,0.09498 -0.213685,0.142465 -0.356131,0.142452 l -3.240799,0 0,12.357769 c -2e-6,0.142453 -0.04749,0.273035 -0.142452,0.391745 -0.09497,0.09497 -0.225553,0.142453 -0.391745,0.142453 -0.142455,0 -0.273036,-0.04748 -0.391745,-0.142453 -0.09497,-0.11871 -0.142454,-0.249292 -0.142453,-0.391745 l 0,-25.64148 c -1e-6,-0.142426 0.04748,-0.261137 0.142453,-0.356131 0.118709,-0.118684 0.24929,-0.17804 0.391745,-0.178066 l 3.774996,0 c 0.142446,2.6e-5 0.261157,0.05938 0.356131,0.178066 0.118704,0.09499 0.17806,0.213705 0.178066,0.356131 -6e-6,0.166221 -0.05936,0.308674 -0.178066,0.427358 -0.09497,0.09499 -0.213685,0.142478 -0.356131,0.142453 l -3.240799,0 0,11.609892 3.240799,0 0,0" />
      <path
         inkscape:connector-curvature="0"
         id="path4200"
         style="font-size:35.61316681px;font-variant:normal;font-stretch:normal;text-align:center;line-height:0%;text-anchor:middle;fill:#28568a;fill-opacity:1;stroke:none;font-family:Matchbook;-inkscape-font-specification:Matchbook"
         d="m 32.23951,39.485779 c -0.688525,0 -1.270206,-0.22555 -1.745045,-0.67665 -0.451102,-0.474841 -0.676652,-1.044652 -0.67665,-1.709432 l 0,-23.753983 c -2e-6,-0.166168 0.04748,-0.29675 0.142452,-0.391744 0.118709,-0.118684 0.24929,-0.17804 0.391745,-0.178066 0.356129,2.6e-5 0.534195,0.189963 0.534198,0.56981 l 0,23.753983 c -3e-6,0.356133 0.130578,0.66478 0.391745,0.925942 0.261159,0.261164 0.581677,0.391746 0.961555,0.391745 0.142448,1e-6 0.261159,0.05936 0.356132,0.178066 0.118706,0.09497 0.178061,0.213679 0.178066,0.356131 -5e-6,0.166195 -0.05936,0.296777 -0.178066,0.391745 -0.09497,0.09497 -0.213684,0.142453 -0.356132,0.142453" />
      <path
         inkscape:connector-curvature="0"
         id="path4202"
         style="font-size:35.61316681px;font-variant:normal;font-stretch:normal;text-align:center;line-height:0%;text-anchor:middle;fill:#28568a;fill-opacity:1;stroke:none;font-family:Matchbook;-inkscape-font-specification:Matchbook"
         d="m 40.305892,12.811688 c 0.142447,0.02394 0.261158,0.09567 0.356132,0.215219 0.09496,0.09568 0.130575,0.227201 0.106839,0.394567 l -1.887497,13.056593 0,12.662026 c -5e-6,0.358698 -0.17807,0.538047 -0.534198,0.538047 -0.142456,0 -0.273038,-0.04782 -0.391745,-0.14348 -0.09497,-0.09565 -0.142455,-0.227175 -0.142452,-0.394567 l 0,-12.662026 -1.851885,-13.056593 c -0.04749,-0.358672 0.106838,-0.561933 0.462971,-0.609786 0.142451,-0.0478 0.273032,-0.02389 0.391745,0.07174 0.118708,0.09568 0.189935,0.215246 0.213679,0.358698 l 1.317687,9.362007 1.3533,-9.362007 c 0.02374,-0.143452 0.08309,-0.263018 0.178066,-0.358698 0.118706,-0.09562 0.261158,-0.119539 0.427358,-0.07174" />
    </g>
    <g
       id="g5164"
       transform="translate(0.57014174,0.10915285)">
      <g
         transform="matrix(0.017778,0.79439668,-0.68725187,0.02964186,23.718983,-11.30421)"
         style="fill:#3968ff;fill-opacity:1;stroke:#000000;stroke-width:0.53373206;stroke-linecap:square;stroke-linejoin:miter;stroke-miterlimit:4;stroke-opacity:0.35406704;stroke-dasharray:none"
         id="g4656">
        <path
           sodipodi:nodetypes="ccccc"
           inkscape:connector-curvature="0"
           id="path4819"
           style="fill:#3968ff;fill-opacity:1;stroke:#000000;stroke-width:0.41266653;stroke-linecap:square;stroke-linejoin:miter;stroke-miterlimit:4;stroke-opacity:0.35406704;stroke-dasharray:none"
           d="M 95.431202,-28.20784 93.943848,7.9063624 81.309203,9.1833113 83.529067,-24.630844 z" />
        <path
           inkscape:connector-curvature="0"
           id="path4821"
           style="fill:#3968ff;fill-opacity:1;stroke:#000000;stroke-width:0.41266653;stroke-linecap:square;stroke-linejoin:miter;stroke-miterlimit:4;stroke-opacity:0.35406704;stroke-dasharray:none"
           d="m 73.272319,-29.448785 -15.137426,3.440119 22.066854,1.310857 15.137427,-3.440119 z" />
        <path
           sodipodi:nodetypes="ccccc"
           inkscape:connector-curvature="0"
           id="path4823"
           style="fill:#3968ff;fill-opacity:1;stroke:#000000;stroke-width:0.41331205;stroke-linecap:square;stroke-linejoin:miter;stroke-miterlimit:4;stroke-opacity:0.35406704;stroke-dasharray:none"
           d="M 58.084838,-26.04844 56.833594,9.873021 80.99167,9.1658347 83.605777,-24.535103 z" />
        <path
           inkscape:connector-curvature="0"
           id="path4825"
           style="fill:#3968ff;fill-opacity:1;stroke:#000000;stroke-width:0.41266653;stroke-linecap:square;stroke-linejoin:miter;stroke-miterlimit:4;stroke-opacity:0.35406704;stroke-dasharray:none"
           d="M 75.528125,-29.349194 74.118409,6.7120734 94.105911,7.8994084 95.515627,-28.161859 z" />
        <path
           sodipodi:nodetypes="ccccccc"
           inkscape:connector-curvature="0"
           id="path4827"
           style="fill:#3968ff;fill-opacity:1;stroke:#000000;stroke-width:0.41309345;stroke-miterlimit:4;stroke-opacity:0.35406704;stroke-dasharray:none"
           d="m 71.958661,6.471257 -15.156148,3.4402156 11.770981,0.3890134 -0.04946,0.09654 20.350638,-2.0549564 5.178311,-0.559996 z" />
        <path
           sodipodi:nodetypes="ccccc"
           inkscape:connector-curvature="0"
           id="path4829"
           style="fill:#3968ff;fill-opacity:1;stroke:#000000;stroke-width:0.54492676;stroke-linecap:square;stroke-linejoin:miter;stroke-miterlimit:4;stroke-opacity:0.35406704;stroke-dasharray:none"
           d="M 88.43283,-28.879352 87.229933,6.9355154 56.87753,9.8269554 57.805874,-26.419308 z" />
        <path
           transform="matrix(0.01062312,-0.17121384,0.21886049,0.00859104,-86.21386,47.845147)"
           d="m 472.85713,707.36218 c 0,34.32056 -45.41112,62.14286 -101.42857,62.14286 -56.01746,0 -101.42858,-27.8223 -101.42858,-62.14286 0,-34.32055 45.41112,-62.14286 101.42858,-62.14286 56.01745,0 101.42857,27.82231 101.42857,62.14286 z"
           sodipodi:ry="62.14286"
           sodipodi:rx="101.42857"
           sodipodi:cy="707.36218"
           sodipodi:cx="371.42856"
           id="path5510"
           style="fill:#ffffff;fill-opacity:1;stroke:#000000;stroke-width:2.74099994;stroke-linecap:square;stroke-linejoin:miter;stroke-miterlimit:4;stroke-opacity:0.35406704;stroke-dasharray:none"
           sodipodi:type="arc" />
      </g>
      <g
         style="fill:none;stroke:#000000;stroke-width:1.44894075;stroke-miterlimit:4;stroke-opacity:1;stroke-dasharray:none"
         transform="matrix(0.00913388,0.54442394,-0.46338411,0.01788631,30.517581,24.819054)"
         id="g5036">
        <path
           style="fill:#3968ff;fill-opacity:1;stroke:#28568a;stroke-width:1.44894075;stroke-linecap:square;stroke-linejoin:miter;stroke-miterlimit:4;stroke-opacity:1;stroke-dasharray:none"
           d="M 17.485667,-27.226277 3.3034932,-54.639817 45.773528,-65.587039 60.950683,-31.054962 z"
           id="rect4769-4"
           inkscape:connector-curvature="0"
           sodipodi:nodetypes="ccccc" />
        <path
           style="fill:#ffffff;fill-opacity:1;stroke:#28568a;stroke-width:2.92773509;stroke-linecap:butt;stroke-linejoin:miter;stroke-miterlimit:4;stroke-opacity:1;stroke-dasharray:none"
           d="M 60.394126,-31.838973 30.285315,-44.570957 17.201689,-28.669048"
           id="path4843-4"
           inkscape:connector-curvature="0"
           sodipodi:nodetypes="ccc" />
        <path
           style="fill:#ffffff;stroke:#28568a;stroke-width:2.92014766;stroke-linecap:butt;stroke-linejoin:miter;stroke-miterlimit:4;stroke-opacity:1;stroke-dasharray:none"
           d="M 3.8509254,-54.175777 30.297745,-44.980488 45.525349,-65.19868"
           id="path4843-4-8"
           inkscape:connector-curvature="0"
           sodipodi:nodetypes="ccc" />
        <path
           transform="matrix(0.07085349,-2.1566403,1.8356152,0.03618227,-47.720509,64.917434)"
           inkscape:connector-curvature="0"
           id="path5106"
           d="m 44.993374,48.258412 c -0.01358,-0.06539 -1.265289,-13.735139 -1.259904,-13.759229 0.0034,-0.01531 0.05757,0.02524 0.155148,0.116189 l 0.14989,0.139711 0.52836,6.661267 c 0.290597,3.663697 0.533039,6.710082 0.538759,6.769744 l 0.0104,0.108477 -0.05757,0 c -0.04677,0 -0.05898,-0.0068 -0.06508,-0.03616 z"
           style="opacity:0.77734375;fill:#ffffff;fill-opacity:1;stroke:none" />
        <path
           transform="matrix(0.07085349,-2.1566403,1.8356152,0.03618227,-47.720509,64.917434)"
           inkscape:connector-curvature="0"
           id="path5114"
           d="m 45.61327,55.043188 c 0,-0.02011 -0.613099,-6.688702 -0.618316,-6.725341 -0.0047,-0.03324 -0.0031,-0.03581 0.01601,-0.02557 0.0117,0.0063 0.03927,0.01138 0.06127,0.01138 0.03635,0 0.04055,0.0034 0.04591,0.03693 0.0068,0.04253 0.529836,6.64884 0.529461,6.6875 -1.46e-4,0.01504 -0.0073,0.02557 -0.01729,0.02557 -0.0094,0 -0.01705,-0.0047 -0.01705,-0.01047 z"
           style="opacity:0.77734375;fill:#ffffff;fill-opacity:1;fill-rule:nonzero;stroke:none" />
        <path
           transform="matrix(0.07085349,-2.1566403,1.8356152,0.03618227,-47.720509,64.917434)"
           inkscape:connector-curvature="0"
           id="path5116"
           d="m 45.076338,48.296136 c 0.0078,-0.0032 0.0206,-0.0032 0.02841,0 0.0078,0.0032 0.0014,0.0057 -0.01421,0.0057 -0.01563,0 -0.02202,-0.0026 -0.0142,-0.0057 z"
           style="opacity:0.77734375;fill:#ffffff;fill-opacity:1;fill-rule:nonzero;stroke:none" />
        <path
           transform="matrix(0.07085349,-2.1566403,1.8356152,0.03618227,-47.720509,64.917434)"
           inkscape:connector-curvature="0"
           id="path5118"
           d="m 45.313617,51.721337 c -0.167732,-1.826596 -0.307641,-3.344805 -0.310909,-3.373798 l -0.0059,-0.05271 0.0478,0.0087 c 0.02629,0.0048 0.05224,0.01319 0.05767,0.01862 0.0069,0.0069 0.468501,5.751148 0.536346,6.673747 0.0016,0.02138 -0.0023,0.04058 -0.0086,0.04268 -0.0072,0.0024 -0.124375,-1.22617 -0.316396,-3.317274 l 0,0 z"
           style="opacity:0.77734375;fill:#ffffff;fill-opacity:1;fill-rule:nonzero;stroke:none" />
        <path
           transform="matrix(0.07085349,-2.1566403,1.8356152,0.03618227,-47.720509,64.917434)"
           inkscape:connector-curvature="0"
           id="path5120"
           d="m 45.085426,48.294844 c 0.0015,-0.0025 -0.0094,-0.0039 -0.03004,-0.004 -0.03973,-7e-5 -0.05038,-0.0048 -0.0569,-0.02543 -0.0048,-0.01522 -0.03801,-0.358935 -0.104289,-1.079983 -0.01827,-0.198731 -0.03402,-0.367041 -0.035,-0.374024 l -0.0018,-0.0127 0.06811,0 c 0.03746,0 0.06811,9.15e-4 0.06811,0.002 0,0.0066 0.109967,1.38646 0.113305,1.421795 0.0022,0.02363 0.005,0.04868 0.0061,0.05566 0.0019,0.01153 0.0011,0.0127 -0.0079,0.0127 -0.0055,0 -0.0099,0.0018 -0.0099,0.0039 0,0.0021 -0.0027,0.0039 -0.0061,0.0039 -0.0033,0 -0.005,-0.0018 -0.0037,-0.0039 z"
           style="opacity:0.77734375;fill:#ffffff;fill-opacity:1;fill-rule:nonzero;stroke:none" />
        <path
           transform="matrix(0.07085349,-2.1566403,1.8356152,0.03618227,-47.720509,64.917434)"
           inkscape:connector-curvature="0"
           id="path5122"
           d="m 45.087379,48.296162 c 0,-0.0024 -0.01432,-0.0053 -0.03395,-0.0069 -0.01868,-0.0015 -0.03699,-0.0044 -0.0407,-0.0064 -0.01262,-0.0068 -0.01452,-0.01841 -0.0327,-0.200937 -0.01348,-0.13532 -0.119199,-1.267819 -0.119199,-1.276955 -10e-7,-0.0071 0.0028,-0.0073 0.06532,-0.0047 0.03593,0.0015 0.06558,0.0031 0.06589,0.0035 3.13e-4,4.17e-4 0.02646,0.325075 0.0581,0.721462 0.03164,0.396386 0.05846,0.73081 0.05959,0.743164 0.0019,0.02027 0.0013,0.02246 -0.0055,0.02246 -0.0041,0 -0.0096,0.0021 -0.0122,0.0047 -0.003,0.003 -0.0047,0.0032 -0.0047,5.37e-4 z"
           style="opacity:0.77734375;fill:#ffffff;fill-opacity:1;fill-rule:nonzero;stroke:none" />
        <path
           transform="matrix(0.07085349,-2.1566403,1.8356152,0.03618227,-47.720509,64.917434)"
           inkscape:connector-curvature="0"
           id="path5124"
           d="m 45.214649,50.627852 c -0.0013,-0.0102 -0.04891,-0.524805 -0.105801,-1.143555 -0.05689,-0.61875 -0.104971,-1.138184 -0.106852,-1.154297 -0.0019,-0.01611 -0.0027,-0.03013 -0.0018,-0.03115 0.0029,-0.0033 0.08338,0.01472 0.09246,0.02067 0.0081,0.0053 0.0092,0.01106 0.01549,0.0833 0.02667,0.30671 0.182318,2.214362 0.182318,2.234562 0,0.0088 -9.6e-4,0.009 -0.03674,0.009 l -0.03674,0 -0.0024,-0.01855 z"
           style="opacity:0.77734375;fill:#ffffff;fill-opacity:1;fill-rule:nonzero;stroke:none" />
        <path
           transform="matrix(0.07085349,-2.1566403,1.8356152,0.03618227,-47.720509,64.917434)"
           inkscape:connector-curvature="0"
           id="path5126"
           d=""
           style="opacity:0.77734375;fill:#ffffff;fill-opacity:1;fill-rule:nonzero;stroke:none" />
        <path
           transform="matrix(0.07085349,-2.1566403,1.8356152,0.03618227,-47.720509,64.917434)"
           inkscape:connector-curvature="0"
           id="path5128"
           d=""
           style="opacity:0.77734375;fill:#ffffff;fill-opacity:1;fill-rule:nonzero;stroke:none" />
        <path
           transform="matrix(0.07085349,-2.1566403,1.8356152,0.03618227,-47.720509,64.917434)"
           inkscape:connector-curvature="0"
           id="path5130"
           d=""
           style="opacity:0.77734375;fill:#ffffff;fill-opacity:1;fill-rule:nonzero;stroke:none" />
        <path
           transform="matrix(0.07085349,-2.1566403,1.8356152,0.03618227,-47.720509,64.917434)"
           inkscape:connector-curvature="0"
           id="path5132"
           d=""
           style="opacity:0.77734375;fill:#ffffff;fill-opacity:1;fill-rule:nonzero;stroke:none" />
        <path
           transform="matrix(0.07085349,-2.1566403,1.8356152,0.03618227,-47.720509,64.917434)"
           inkscape:connector-curvature="0"
           id="path5134"
           d="m 44.43477,42.151557 c 0,-0.0054 -0.005,-0.05888 -0.01106,-0.118772 -0.05341,-0.525807 -0.685584,-7.520038 -0.680188,-7.525434 0.0055,-0.0055 0.12183,0.09338 0.212721,0.180743 l 0.07942,0.07634 0.288017,3.651544 c 0.15841,2.008349 0.290774,3.672674 0.294142,3.6985 l 0.0061,0.04696 -0.09459,0 c -0.05202,0 -0.09459,-0.0044 -0.09459,-0.0099 z"
           style="opacity:0.77734375;fill:#ffffff;fill-opacity:1;fill-rule:nonzero;stroke:none" />
        <path
           transform="matrix(0.07085349,-2.1566403,1.8356152,0.03618227,-47.720509,64.917434)"
           inkscape:connector-curvature="0"
           id="path5136"
           d="m 44.470678,42.153443 c -0.0265,-0.0033 -0.03591,-0.01002 -0.03591,-0.02568 0,-0.01167 -0.08695,-0.972168 -0.193213,-2.134431 -0.240791,-2.63358 -0.493691,-5.468227 -0.488338,-5.47358 0.0045,-0.0045 0.234774,0.201349 0.262677,0.23474 0.01444,0.01728 0.04049,0.313604 0.147087,1.672751 0.202521,2.582256 0.447039,5.658724 0.452902,5.698286 l 0.0053,0.03591 -0.05731,-0.0018 c -0.03152,-9.73e-4 -0.07347,-0.0038 -0.09322,-0.0062 z"
           style="opacity:0.77734375;fill:#ffffff;fill-opacity:1;fill-rule:nonzero;stroke:none" />
        <path
           transform="matrix(0.07085349,-2.1566403,1.8356152,0.03618227,-47.720509,64.917434)"
           inkscape:connector-curvature="0"
           id="path5138"
           d="m 44.484596,42.151581 c -0.02677,-0.0041 -0.04519,-0.01323 -0.04689,-0.02329 -0.0031,-0.01823 -0.367471,-4.032449 -0.483417,-5.325397 -0.132755,-1.480379 -0.199868,-2.276289 -0.191696,-2.273365 0.0044,0.0016 0.06268,0.05155 0.129415,0.111033 0.08163,0.07275 0.12338,0.117951 0.127571,0.138106 0.01652,0.07947 0.04199,0.383302 0.205372,2.449594 0.229002,2.896263 0.386431,4.875844 0.3899,4.902792 0.0037,0.02902 0.0019,0.03031 -0.04113,0.02882 -0.02477,-8.62e-4 -0.06488,-0.0046 -0.08913,-0.0083 l 0,0 z"
           style="opacity:0.77734375;fill:#ffffff;fill-opacity:1;fill-rule:nonzero;stroke:none" />
        <path
           transform="matrix(0.07085349,-2.1566403,1.8356152,0.03618227,-47.720509,64.917434)"
           inkscape:connector-curvature="0"
           id="path5140"
           d="m 44.49298,42.15105 c -0.02571,-0.0042 -0.04873,-0.0098 -0.05115,-0.01243 -0.0069,-0.0076 -0.536047,-5.860942 -0.641996,-7.102262 -0.04283,-0.501846 -0.04262,-0.49845 -0.03074,-0.498354 0.01385,1.11e-4 0.228346,0.19957 0.242093,0.225122 0.02116,0.03934 0.01485,-0.03675 0.417974,5.036706 0.100311,1.262449 0.182384,2.310265 0.182384,2.328481 0,0.03028 -0.0031,0.033 -0.03591,0.03174 -0.01975,-7.6e-4 -0.05695,-0.0048 -0.08266,-0.009 z"
           style="opacity:0.77734375;fill:#ffffff;fill-opacity:1;fill-rule:nonzero;stroke:none" />
        <path
           transform="matrix(0.07085349,-2.1566403,1.8356152,0.03618227,-47.720509,64.917434)"
           inkscape:connector-curvature="0"
           id="path5142"
           d=""
           style="opacity:0.77734375;fill:#ffffff;fill-opacity:1;fill-rule:nonzero;stroke:none" />
        <path
           transform="matrix(0.07085349,-2.1566403,1.8356152,0.03618227,-47.720509,64.917434)"
           inkscape:connector-curvature="0"
           id="path5144"
           d=""
           style="opacity:0.77734375;fill:#ffffff;fill-opacity:1;fill-rule:nonzero;stroke:none" />
        <path
           transform="matrix(0.07085349,-2.1566403,1.8356152,0.03618227,-47.720509,64.917434)"
           inkscape:connector-curvature="0"
           id="path5146"
           d=""
           style="opacity:0.77734375;fill:#ffffff;fill-opacity:1;fill-rule:nonzero;stroke:none" />
        <path
           transform="matrix(0.07085349,-2.1566403,1.8356152,0.03618227,-47.720509,64.917434)"
           inkscape:connector-curvature="0"
           id="path5148"
           d="m 44.857492,46.743544 c -0.0037,-0.02887 -0.09383,-1.002103 -0.200295,-2.162753 -0.106461,-1.160649 -0.200329,-2.179877 -0.208597,-2.264951 -0.0083,-0.08507 -0.01448,-0.154734 -0.01381,-0.1548 6.71e-4,-6.6e-5 0.04208,0.0016 0.09203,0.0036 l 0.0908,0.0037 0.0056,0.03508 c 0.0031,0.01929 0.0853,1.046847 0.182693,2.283456 0.09739,1.236608 0.178672,2.262051 0.180632,2.278762 0.0035,0.03001 0.0028,0.03038 -0.05939,0.03038 l -0.06295,0 -0.0067,-0.05248 0,0 z"
           style="opacity:0.77734375;fill:#ffffff;fill-opacity:1;fill-rule:nonzero;stroke:none" />
        <path
           transform="matrix(0.07085349,-2.1566403,1.8356152,0.03618227,-47.720509,64.917434)"
           inkscape:connector-curvature="0"
           id="path5150"
           d="m 44.863455,46.771165 c -0.0023,-0.03125 -0.166394,-1.811047 -0.362252,-3.92861 -0.03391,-0.36659 -0.05996,-0.667939 -0.0579,-0.669665 0.0021,-0.0017 0.03946,-0.0063 0.08311,-0.0102 0.07016,-0.0062 0.08008,-0.0048 0.08563,0.01269 0.0056,0.01779 0.08598,1.009553 0.298785,3.688608 0.03965,0.49915 0.07209,0.91057 0.07209,0.914267 0,0.0037 -0.0078,0.0067 -0.01723,0.0067 -0.0095,0 -0.01415,0.005 -0.0104,0.01105 0.0042,0.0067 -0.01199,0.01105 -0.04119,0.01105 -0.04627,0 -0.04812,-0.0013 -0.05064,-0.03591 z"
           style="opacity:0.77734375;fill:#ffffff;fill-opacity:1;fill-rule:nonzero;stroke:none" />
        <path
           transform="matrix(0.07085349,-2.1566403,1.8356152,0.03618227,-47.720509,64.917434)"
           inkscape:connector-curvature="0"
           id="path5152"
           d="m 45.21749,50.634422 c -0.0049,-0.01635 -0.215864,-2.328229 -0.212718,-2.331375 0.0016,-0.0016 0.02125,9.96e-4 0.04365,0.0058 0.0295,0.0063 0.0426,0.01337 0.04754,0.02555 0.0069,0.01693 0.02239,0.199587 0.128876,1.516821 0.03196,0.395312 0.06009,0.735449 0.06252,0.755859 l 0.0044,0.03711 -0.03567,0 c -0.02176,0 -0.03682,-0.0038 -0.03861,-0.0098 l 0,0 z"
           style="opacity:0.77734375;fill:#ffffff;fill-opacity:1;fill-rule:nonzero;stroke:none" />
        <path
           transform="matrix(0.07085349,-2.1566403,1.8356152,0.03618227,-47.720509,64.917434)"
           inkscape:connector-curvature="0"
           id="path5154"
           d="m 45.217544,50.634422 c -0.0016,-0.0054 -0.02633,-0.266406 -0.05497,-0.580078 -0.02865,-0.313672 -0.0764,-0.835503 -0.106123,-1.159624 -0.02972,-0.324121 -0.05286,-0.590489 -0.05142,-0.591929 0.0014,-0.0014 0.02107,0.0016 0.04362,0.0068 0.02897,0.0067 0.04275,0.01418 0.04695,0.02552 0.007,0.01898 0.0022,-0.03667 0.105384,1.226995 0.04489,0.55 0.08359,1.018457 0.086,1.041016 l 0.0044,0.04102 -0.03547,0 c -0.02163,0 -0.0366,-0.0038 -0.03836,-0.0098 z"
           style="opacity:0.77734375;fill:#ffffff;fill-opacity:1;fill-rule:nonzero;stroke:none" />
        <path
           transform="matrix(0.07085349,-2.1566403,1.8356152,0.03618227,-47.720509,64.917434)"
           inkscape:connector-curvature="0"
           id="path5156"
           d="m 45.217358,50.634422 c -0.0017,-0.0054 -0.01925,-0.187305 -0.03903,-0.404297 -0.01978,-0.216992 -0.0675,-0.738771 -0.106054,-1.159508 -0.03855,-0.420737 -0.06885,-0.76622 -0.06733,-0.76774 0.0015,-0.0015 0.02107,0.0012 0.04344,0.006 0.02983,0.0064 0.04236,0.01321 0.04698,0.02555 0.0074,0.01983 0.02386,0.210688 0.117524,1.364484 0.03854,0.474805 0.07219,0.881738 0.07477,0.904297 l 0.0047,0.04102 -0.03596,0 c -0.02192,0 -0.03716,-0.0038 -0.03904,-0.0098 z"
           style="opacity:0.77734375;fill:#ffffff;fill-opacity:1;fill-rule:nonzero;stroke:none" />
        <path
           transform="matrix(0.07085349,-2.1566403,1.8356152,0.03618227,-47.720509,64.917434)"
           inkscape:connector-curvature="0"
           id="path5158"
           d="m 45.21384,49.637219 c -10e-4,-0.0048 -0.0064,-0.0668 -0.01192,-0.137695 -0.02806,-0.358398 -0.09478,-1.157222 -0.09793,-1.172524 -0.0012,-0.0058 -0.0071,-0.01034 -0.01835,-0.01434 l -0.01661,-0.0059 0.01465,-3.08e-4 c 0.01939,-4.08e-4 0.02877,0.0094 0.03189,0.03345 0.0014,0.01044 0.02439,0.291441 0.05119,0.624449 0.0268,0.333007 0.05011,0.622607 0.0518,0.643554 0.0017,0.02095 0.0017,0.03809 9.2e-5,0.03809 -0.0016,0 -0.0038,-0.004 -0.0048,-0.0088 z"
           style="opacity:0.77734375;fill:#ffffff;fill-opacity:1;fill-rule:nonzero;stroke:none" />
        <path
           transform="matrix(0.07085349,-2.1566403,1.8356152,0.03618227,-47.720509,64.917434)"
           inkscape:connector-curvature="0"
           id="path5160"
           d="m 45.210653,49.583508 c -0.0016,-0.01826 -0.01876,-0.226562 -0.03819,-0.46289 -0.01943,-0.236329 -0.03732,-0.453776 -0.03977,-0.483218 -0.0024,-0.02944 -0.0055,-0.05285 -0.0069,-0.05203 -0.0013,8.27e-4 -0.0017,-0.01004 -7.99e-4,-0.02415 9.77e-4,-0.01534 1.65e-4,-0.02475 -0.002,-0.0234 -0.0022,0.0013 -0.003,-0.0073 -0.0019,-0.0215 10e-4,-0.01398 2.34e-4,-0.02284 -0.0019,-0.02153 -0.0021,0.0013 -0.0029,-0.0083 -0.002,-0.02342 9.76e-4,-0.01534 1.65e-4,-0.02475 -0.002,-0.0234 -0.0022,0.0013 -0.003,-0.0073 -0.0019,-0.0215 0.0013,-0.0182 5.88e-4,-0.02305 -0.0031,-0.02077 -0.0036,0.0022 -0.0041,6.57e-4 -0.002,-0.0058 0.0042,-0.01321 -0.0018,-0.07669 -0.0066,-0.06989 -0.0029,0.0041 -0.0034,0.0033 -0.002,-0.0032 0.0014,-0.0062 -3.01e-4,-0.0093 -0.0058,-0.0111 -0.0042,-0.0013 -0.0068,-0.0033 -0.0058,-0.0044 0.0045,-0.0045 0.01764,0.0037 0.02159,0.01354 0.0055,0.01357 0.107532,1.255819 0.105156,1.27972 -6.64e-4,0.0067 -0.0025,-0.0028 -0.0041,-0.02106 z"
           style="opacity:0.77734375;fill:#ffffff;fill-opacity:1;fill-rule:nonzero;stroke:none" />
        <path
           transform="matrix(0.07085349,-2.1566403,1.8356152,0.03618227,-47.720509,64.917434)"
           inkscape:connector-curvature="0"
           id="path5162"
           d=""
           style="opacity:0.77734375;fill:#ffffff;fill-opacity:1;fill-rule:nonzero;stroke:none" />
      </g>
      <g
         transform="matrix(0.00913388,0.54442394,-0.46338411,0.01788631,0.43843638,25.137487)"
         id="g5028"
         style="fill:none;stroke:#000000;stroke-width:1.44883454;stroke-miterlimit:4;stroke-opacity:1;stroke-dasharray:none">
        <path
           style="font-size:medium;font-style:normal;font-variant:normal;font-weight:normal;font-stretch:normal;text-indent:0;text-align:start;text-decoration:none;line-height:normal;letter-spacing:normal;word-spacing:normal;text-transform:none;direction:ltr;block-progression:tb;writing-mode:lr-tb;text-anchor:start;baseline-shift:baseline;color:#000000;fill:#28568a;fill-opacity:1;fill-rule:nonzero;stroke:none;stroke-width:0.83264697;marker:none;visibility:visible;display:inline;overflow:visible;enable-background:accumulate;font-family:Sans;-inkscape-font-specification:Sans"
           d="m 8.9078601,-0.9946143 0.599742,-0.06041 43.7807549,-4.416219 0.645869,-0.06515 0.135981,-0.587233 c 5.371677,-11.7178257 7.422578,-23.7560707 8.21157,-35.4603277 l 0.146508,-0.632389 -0.645865,0.06512 -43.780746,4.416232 -0.599742,0.06039 -0.146501,0.632429 c -5.498647,11.585935 -9.3308199,23.3489 -8.2115829,35.4603247 z m 1.3036649,-1.225597 C 9.0481881,-14.03289 13.094996,-25.385433 18.318922,-36.575879 l 42.581296,-4.295212 c -0.455693,11.362711 -2.858362,22.739953 -7.939622,34.2857797 z"
           id="rect4769"
           inkscape:connector-curvature="0"
           sodipodi:nodetypes="cccccccccccccccccc" />
        <path
           style="fill:#3968ff;fill-opacity:1;fill-rule:nonzero;stroke:#28568a;stroke-width:1.21480107;stroke-linecap:butt;stroke-linejoin:miter;stroke-miterlimit:4;stroke-opacity:1;stroke-dasharray:none"
           d="m 17.478336,-36.68824 c 7.539674,2.407131 17.443572,18.149785 16.501171,23.753839 3.274061,-7.273053 14.451885,-29.118313 27.205641,-28.189279"
           id="path4843"
           inkscape:connector-curvature="0"
           sodipodi:nodetypes="ccc" />
        <path
           sodipodi:nodetypes="csscsccssscsscssccccc"
           style="fill:#ffffff;fill-opacity:1;fill-rule:nonzero;stroke:#ffffff;stroke-width:0.42930397;stroke-linecap:square;stroke-linejoin:miter;stroke-miterlimit:4;stroke-opacity:0;stroke-dasharray:none"
           d="m 60.687865,-38.447713 c -0.184523,3.291376 -0.513426,7.68987 -1.65298,12.363848 -1.412653,5.794117 -2.618623,10.599495 -5.050126,16.7296397 -0.971337,2.448885 -1.135308,2.759703 -1.457982,2.763794 -0.199978,0.0016 -9.763945,0.968417 -21.253275,2.146412 -11.489324,1.177985 -20.927443,2.113643 -20.973585,2.07921 -0.04609,-0.03439 -0.08158,-1.89616 -0.07873,-4.137189 0.0049,-4.5770587 0.205802,-6.3801677 1.188129,-10.7106177 0.680277,-2.99887 1.455331,-5.6418 2.519641,-8.591849 1.182692,-3.278226 3.779873,-9.473842 4.089558,-9.75572 0.173923,-0.158305 1.217702,0.303362 2.49891,1.105246 2.216061,1.387032 4.414972,3.945037 8.396871,9.768099 2.149426,3.143305 8.86774,16.4514987 5.104584,10.727179 -3.366428,-5.120839 0.454042,0.3081 1.191624,-0.370511 2.370015,-2.18074 4.581415,-8.470473 7.594367,-12.522076 4.642018,-6.242206 6.825767,-8.685823 9.507612,-10.638986 2.390022,-1.740625 5.229112,-2.762744 7.694844,-2.770243 0.794492,-0.002 0.796901,-7.88e-4 0.764663,0.451613 -0.01774,0.24972 -0.05559,0.862678 -0.08411,1.362151 l 0,0 z"
           id="path4943"
           inkscape:connector-curvature="0" />
      </g>
    </g>
  </g>
</svg>
