<?xml version="1.0" encoding="UTF-8" standalone="no"?>
<!-- Created with Inkscape (http://www.inkscape.org/) -->

<svg
   xmlns:osb="http://www.openswatchbook.org/uri/2009/osb"
   xmlns:dc="http://purl.org/dc/elements/1.1/"
   xmlns:cc="http://creativecommons.org/ns#"
   xmlns:rdf="http://www.w3.org/1999/02/22-rdf-syntax-ns#"
   xmlns:svg="http://www.w3.org/2000/svg"
   xmlns="http://www.w3.org/2000/svg"
   xmlns:sodipodi="http://sodipodi.sourceforge.net/DTD/sodipodi-0.dtd"
   xmlns:inkscape="http://www.inkscape.org/namespaces/inkscape"
   sodipodi:docname="flybox-4.0.0.svg"
   inkscape:version="0.48.4 r9939"
   version="1.1"
   id="svg3888"
   height="1052.3622047"
   width="744.09448819">
  <defs
     id="defs3890">
    <inkscape:perspective
       sodipodi:type="inkscape:persp3d"
       inkscape:vp_x="-366.3504 : -10.021929 : 0"
       inkscape:vp_y="-173.64818 : 984.80777 : 0"
       inkscape:vp_z="1.7378616e-14 : 283.81434 : 0"
       inkscape:persp3d-origin="398.31121 : 220.47772 : 1"
       id="perspective4654" />
    <linearGradient
       osb:paint="solid"
       id="linearGradient3911">
      <stop
         id="stop3913"
         offset="0"
         style="stop-color:#000000;stop-opacity:1;" />
    </linearGradient>
  </defs>
  <sodipodi:namedview
     id="base"
     pagecolor="#ffffff"
     bordercolor="#666666"
     borderopacity="1.0"
     inkscape:pageopacity="0.0"
     inkscape:pageshadow="2"
     inkscape:zoom="0.7"
     inkscape:cx="93.018461"
     inkscape:cy="479.39265"
     inkscape:document-units="px"
     inkscape:current-layer="layer1-2"
     showgrid="false"
     inkscape:window-width="1333"
     inkscape:window-height="744"
     inkscape:window-x="33"
     inkscape:window-y="24"
     inkscape:window-maximized="1" />
  <metadata
     id="metadata3893">
    <rdf:RDF>
      <cc:Work
         rdf:about="">
        <dc:format>image/svg+xml</dc:format>
        <dc:type
           rdf:resource="http://purl.org/dc/dcmitype/StillImage" />
      </cc:Work>
    </rdf:RDF>
  </metadata>
  <g
     inkscape:label="Layer 1"
     inkscape:groupmode="layer"
     id="layer1">
    <g
       id="layer1-2"
       inkscape:label="Layer 1"
       transform="translate(-0.21474872,8.4078767)">
      <g
         id="text3909-47"
         style="font-size:8.9032917px;font-style:normal;font-weight:normal;line-height:0%;letter-spacing:0px;word-spacing:0px;fill:#000000;fill-opacity:1;stroke:none;font-family:Sans"
         transform="matrix(16.660418,0,0,15.754034,-135.38634,-38.353415)">
        <path
           inkscape:connector-curvature="0"
           id="path4198"
           style="font-size:35.61316681000000273px;font-variant:normal;font-stretch:normal;text-align:center;line-height:0%;text-anchor:middle;fill:#1b149e;fill-opacity:1;stroke:none;font-family:Matchbook;-inkscape-font-specification:Matchbook"
           d="m 26.267071,25.489804 c 0.142446,1.4e-5 0.261157,0.05937 0.356131,0.178066 0.118704,0.09498 0.17806,0.225564 0.178066,0.391745 -6e-6,0.142466 -0.05936,0.273047 -0.178066,0.391745 -0.09497,0.09498 -0.213685,0.142465 -0.356131,0.142452 l -3.240799,0 0,12.357769 c -2e-6,0.142453 -0.04749,0.273035 -0.142452,0.391745 -0.09497,0.09497 -0.225553,0.142453 -0.391745,0.142453 -0.142455,0 -0.273036,-0.04748 -0.391745,-0.142453 -0.09497,-0.11871 -0.142454,-0.249292 -0.142453,-0.391745 l 0,-25.64148 c -1e-6,-0.142426 0.04748,-0.261137 0.142453,-0.356131 0.118709,-0.118684 0.24929,-0.17804 0.391745,-0.178066 l 3.774996,0 c 0.142446,2.6e-5 0.261157,0.05938 0.356131,0.178066 0.118704,0.09499 0.17806,0.213705 0.178066,0.356131 -6e-6,0.166221 -0.05936,0.308674 -0.178066,0.427358 -0.09497,0.09499 -0.213685,0.142478 -0.356131,0.142453 l -3.240799,0 0,11.609892 3.240799,0 0,0" />
        <path
           inkscape:connector-curvature="0"
           id="path4200"
           style="font-size:35.61316681000000273px;font-variant:normal;font-stretch:normal;text-align:center;line-height:0%;text-anchor:middle;fill:#1b149e;fill-opacity:1;stroke:none;font-family:Matchbook;-inkscape-font-specification:Matchbook"
           d="m 32.23951,39.485779 c -0.688525,0 -1.270206,-0.22555 -1.745045,-0.67665 -0.451102,-0.474841 -0.676652,-1.044652 -0.67665,-1.709432 l 0,-23.753983 c -2e-6,-0.166168 0.04748,-0.29675 0.142452,-0.391744 0.118709,-0.118684 0.24929,-0.17804 0.391745,-0.178066 0.356129,2.6e-5 0.534195,0.189963 0.534198,0.56981 l 0,23.753983 c -3e-6,0.356133 0.130578,0.66478 0.391745,0.925942 0.261159,0.261164 0.581677,0.391746 0.961555,0.391745 0.142448,1e-6 0.261159,0.05936 0.356132,0.178066 0.118706,0.09497 0.178061,0.213679 0.178066,0.356131 -5e-6,0.166195 -0.05936,0.296777 -0.178066,0.391745 -0.09497,0.09497 -0.213684,0.142453 -0.356132,0.142453" />
        <path
           inkscape:connector-curvature="0"
           id="path4202"
           style="font-size:35.61316681000000273px;font-variant:normal;font-stretch:normal;text-align:center;line-height:0%;text-anchor:middle;fill:#1b149e;fill-opacity:1;stroke:none;font-family:Matchbook;-inkscape-font-specification:Matchbook"
           d="m 40.305892,12.811688 c 0.142447,0.02394 0.261158,0.09567 0.356132,0.215219 0.09496,0.09568 0.130575,0.227201 0.106839,0.394567 l -1.887497,13.056593 0,12.662026 c -5e-6,0.358698 -0.17807,0.538047 -0.534198,0.538047 -0.142456,0 -0.273038,-0.04782 -0.391745,-0.14348 -0.09497,-0.09565 -0.142455,-0.227175 -0.142452,-0.394567 l 0,-12.662026 -1.851885,-13.056593 c -0.04749,-0.358672 0.106838,-0.561933 0.462971,-0.609786 0.142451,-0.0478 0.273032,-0.02389 0.391745,0.07174 0.118708,0.09568 0.189935,0.215246 0.213679,0.358698 l 1.317687,9.362007 1.3533,-9.362007 c 0.02374,-0.143452 0.08309,-0.263018 0.178066,-0.358698 0.118706,-0.09562 0.261158,-0.119539 0.427358,-0.07174" />
        <path
           style="fill:#1b149e;fill-opacity:1;stroke:#000000;stroke-width:5.53765631;stroke-linecap:square;stroke-linejoin:miter;stroke-miterlimit:4;stroke-opacity:0.35406704;stroke-dasharray:none"
           d="m 262.94255,733.81245 c -4.12802,-4.12984 -20.44023,-16.1456 -36.24936,-26.7017 -15.80913,-10.55609 -28.63172,-20.05215 -28.49464,-21.10234 0.13709,-1.0502 9.67622,-7.60263 21.19809,-14.56097 11.52187,-6.95834 25.34202,-16.66096 30.71146,-21.56138 5.36943,-4.90043 10.03628,-7.89393 10.37078,-6.65224 1.34492,4.99248 11.45339,96.6032 10.73825,97.31834 -0.423,0.423 -4.14656,-2.60987 -8.27458,-6.73971 z"
           id="path5512"
           inkscape:connector-curvature="0"
           transform="matrix(0.0600225,0,0,0.06347581,8.1391168,1.9008172)" />
        <path
           style="fill:#1b149e;fill-opacity:1;stroke:none;stroke-width:5.53765631000000003;stroke-linecap:square;stroke-linejoin:miter;stroke-miterlimit:4;stroke-opacity:0.35406704000000000;stroke-dasharray:none"
           d="m 262.94255,733.81245 c -4.12802,-4.12984 -20.44023,-16.1456 -36.24936,-26.7017 -15.80913,-10.55609 -28.63172,-20.05215 -28.49464,-21.10234 0.13709,-1.0502 9.67622,-7.60263 21.19809,-14.56097 11.52187,-6.95834 25.2919,-16.61423 30.60007,-21.45755 8.75424,-7.98759 9.73097,-8.41808 10.5092,-4.63193 1.84711,8.98626 11.48631,94.41911 10.73759,95.16784 -0.43751,0.4375 -4.17293,-2.58351 -8.30095,-6.71335 z"
           id="path5514"
           inkscape:connector-curvature="0"
           transform="matrix(0.0600225,0,0,0.06347581,8.1391168,1.9008172)" />
      </g>
      <g
         inkscape:label="Layer 1"
         id="layer1-6"
         transform="matrix(0,3.1582364,-3.793115,0,366.03589,574.93295)"
         style="fill:none;stroke:#000000;stroke-width:1.44883454;stroke-miterlimit:4;stroke-opacity:1;stroke-dasharray:none">
        <g
           id="g4656"
           style="fill:#3329f2;fill-opacity:1;stroke:#000000;stroke-width:0.53373207000000000;stroke-linecap:square;stroke-linejoin:miter;stroke-miterlimit:4;stroke-opacity:0.354067;stroke-dasharray:none"
           transform="matrix(1.483766,0,0,1.483766,4.474007,5.9877126)">
          <path
             d="m 71.657514,-23.225505 -1.578291,36.01339 -19.723452,2.76826 1.435786,-35.421244 z"
             style="fill:#3329f2;fill-opacity:1;stroke:#000000;stroke-width:0.53373207000000000;stroke-linecap:square;stroke-linejoin:miter;stroke-miterlimit:4;stroke-opacity:0.354067;stroke-dasharray:none"
             id="path4819"
             inkscape:connector-curvature="0"
             sodipodi:nodetypes="ccccc" />
          <path
             d="m 34.471631,-24.853353 -25.2941319,3.166947 37.0333489,1.695999 25.294133,-3.166948 z"
             style="fill:#3329f2;fill-opacity:1;stroke:#000000;stroke-width:0.53373207000000000;stroke-linecap:square;stroke-linejoin:miter;stroke-miterlimit:4;stroke-opacity:0.354067;stroke-dasharray:none"
             id="path4821"
             inkscape:connector-curvature="0" />
          <path
             d="m 9.2276753,-21.723828 -1.1877808,35.825869 40.9749025,1.410524 2.908324,-35.28109 z"
             style="fill:#3329f2;fill-opacity:1;stroke:#000000;stroke-width:0.53373207000000000;stroke-linecap:square;stroke-linejoin:miter;stroke-miterlimit:4;stroke-opacity:0.354067;stroke-dasharray:none"
             id="path4823"
             inkscape:connector-curvature="0"
             sodipodi:nodetypes="ccccc" />
          <path
             d="m 38.256529,-24.71432 -1.449456,35.961929 33.543709,1.536185 1.449456,-35.961929 z"
             style="fill:#3329f2;fill-opacity:1;stroke:#000000;stroke-width:0.53373207000000000;stroke-linecap:square;stroke-linejoin:miter;stroke-miterlimit:4;stroke-opacity:0.354067;stroke-dasharray:none"
             id="path4825"
             inkscape:connector-curvature="0" />
          <path
             d="m 33.260382,10.97119 -25.2709822,3.16851 36.9990182,1.694427 5.339,0.04908 19.931983,-3.217595 z"
             style="fill:#3329f2;fill-opacity:1;stroke:#000000;stroke-opacity:0.354067;stroke-width:0.53373207000000000;stroke-miterlimit:4;stroke-dasharray:none"
             id="path4827"
             inkscape:connector-curvature="0"
             sodipodi:nodetypes="cccccc" />
          <path
             d="M 38.340287,-24.636462 37.152508,11.189407 8.0398945,14.102041 9.2276753,-21.723828 z"
             style="fill:#3329f2;fill-opacity:1;stroke:#000000;stroke-width:0.53373207000000000;stroke-linecap:square;stroke-linejoin:miter;stroke-miterlimit:4;stroke-opacity:0.35406700000000002;stroke-dasharray:none"
             id="path4829"
             inkscape:connector-curvature="0" />
          <path
             sodipodi:type="arc"
             style="fill:#ffffff;fill-opacity:1;stroke:#000000;stroke-width:2.74099994;stroke-linecap:square;stroke-linejoin:miter;stroke-miterlimit:4;stroke-opacity:0.35406704;stroke-dasharray:none"
             id="path5510"
             sodipodi:cx="371.42856"
             sodipodi:cy="707.36218"
             sodipodi:rx="101.42857"
             sodipodi:ry="62.14286"
             d="m 472.85713,707.36218 c 0,34.32056 -45.41112,62.14286 -101.42857,62.14286 -56.01746,0 -101.42858,-27.8223 -101.42858,-62.14286 0,-34.32055 45.41112,-62.14286 101.42858,-62.14286 56.01745,0 101.42857,27.82231 101.42857,62.14286 z"
             transform="matrix(0.01051552,-0.17125281,0.21322071,0.00844577,-131.88916,52.221416)" />
        </g>
        <g
           id="g5036">
          <path
             sodipodi:nodetypes="ccccc"
             inkscape:connector-curvature="0"
             id="rect4769-4"
             d="M 17.429409,-27.285373 8.45454,-61.482992 50.117244,-70.109587 60.902236,-30.936136 z"
             style="fill:#ffffff;stroke:#28568a;stroke-width:1.20205271;stroke-linecap:square;stroke-linejoin:miter;stroke-opacity:1" />
          <path
             sodipodi:nodetypes="ccc"
             inkscape:connector-curvature="0"
             id="path4843-4"
             d="M 60.333284,-31.398832 34.645654,-47.701651 17.117023,-27.005398"
             style="fill:#ffffff;stroke:#28568a;stroke-width:1.20205271;stroke-linecap:butt;stroke-linejoin:miter;stroke-miterlimit:4;stroke-opacity:1;stroke-dasharray:none" />
          <path
             sodipodi:nodetypes="ccc"
             inkscape:connector-curvature="0"
             id="path4843-4-8"
             d="m 8.577435,-61.419589 25.801069,13.686226 15.726794,-22.038011"
             style="fill:#ffffff;stroke:#28568a;stroke-width:1.20205271;stroke-linecap:butt;stroke-linejoin:miter;stroke-miterlimit:4;stroke-opacity:1;stroke-dasharray:none" />
          <path
             inkscape:connector-curvature="0"
             id="path4947"
             d="m 58.897054,-33.208318 c -2.307134,-1.392293 -22.96712,-14.595035 -23.083019,-14.75117 -0.125422,-0.168957 13.23667,-19.139175 13.84445,-19.655016 0.130299,-0.110542 2.335549,7.433509 4.9006,16.764579 2.56506,9.331076 4.738321,17.206933 4.829453,17.5019 0.149973,0.485386 0.102957,0.498652 -0.491484,0.139761 l 0,0 z"
             style="fill:#ffffff;fill-opacity:1;stroke:#1c3c60;stroke-width:0.85860795000000001;stroke-linecap:square;stroke-linejoin:miter;stroke-miterlimit:4;stroke-opacity:0;stroke-dasharray:none" />
          <path
             inkscape:connector-curvature="0"
             id="path4949"
             d="m 38.747224,-29.340393 c -11.007168,1.114353 -20.05322,1.992622 -20.102339,1.95172 -0.07627,-0.06345 15.669478,-18.77344 16.102577,-19.134056 0.141504,-0.117813 22.110191,13.665473 23.432928,14.701909 0.537345,0.421042 -0.886652,0.602796 -19.433166,2.480427 l 0,0 z"
             style="fill:#ffffff;fill-opacity:1;stroke:#ffffff;stroke-width:0.85860795000000001;stroke-linecap:square;stroke-linejoin:miter;stroke-miterlimit:4;stroke-opacity:0;stroke-dasharray:none" />
          <path
             inkscape:connector-curvature="0"
             id="path4953"
             d="m 41.494112,-59.087626 c -3.925097,5.501271 -7.219511,10.071369 -7.320888,10.15579 -0.101459,0.0845 -5.580826,-2.712214 -12.176552,-6.214743 -6.595707,-3.50254 -11.853758,-6.405645 -11.684564,-6.451357 1.306367,-0.352963 37.909603,-7.624513 38.088368,-7.56658 0.126473,0.04106 -2.981256,4.575621 -6.906364,10.07689 z"
             style="fill:#ffffff;fill-opacity:1;stroke:#1c3c60;stroke-width:0.85860795000000001;stroke-linecap:square;stroke-linejoin:miter;stroke-miterlimit:4;stroke-opacity:0;stroke-dasharray:none" />
          <path
             inkscape:connector-curvature="0"
             id="path4955"
             d="m 25.792512,-38.48616 c -4.099982,4.845412 -7.605518,8.812285 -7.790086,8.81528 -0.327014,0.0036 -8.322552,-29.788538 -8.054097,-30.012068 0.138712,-0.115444 22.158537,11.492462 22.891307,12.067348 0.314273,0.246574 -1.296178,2.332887 -7.047124,9.12944 z"
             style="fill:#ffffff;fill-opacity:1;stroke:#1c3c60;stroke-width:0.85860795000000001;stroke-linecap:square;stroke-linejoin:miter;stroke-miterlimit:4;stroke-opacity:0;stroke-dasharray:none" />
        </g>
        <g
           id="g5028">
          <path
             sodipodi:nodetypes="cccccccccccccccccc"
             inkscape:connector-curvature="0"
             id="rect4769"
             d="m 6.6462,63.407787 0.599742,-0.06041 43.780755,-4.416219 0.645869,-0.06515 0.135981,-0.587233 c 5.371677,-11.717826 7.422578,-23.756071 8.21157,-35.460328 l 0.146508,-0.632389 -0.645865,0.06512 -43.780746,4.416232 -0.599742,0.06039 -0.146501,0.632429 C 9.495124,38.946164 5.662951,50.709129 6.782188,62.820554 z M 7.949865,62.18219 C 6.786528,50.369511 10.833336,39.016968 16.057262,27.826522 L 58.638558,23.53131 c -0.455693,11.362711 -2.858362,22.739953 -7.939622,34.28578 z"
             style="font-size:medium;font-style:normal;font-variant:normal;font-weight:normal;font-stretch:normal;text-indent:0;text-align:start;text-decoration:none;line-height:normal;letter-spacing:normal;word-spacing:normal;text-transform:none;direction:ltr;block-progression:tb;writing-mode:lr-tb;text-anchor:start;baseline-shift:baseline;color:#000000;fill:#28568a;fill-opacity:1;fill-rule:nonzero;stroke:none;stroke-width:0.83264697;marker:none;visibility:visible;display:inline;overflow:visible;enable-background:accumulate;font-family:Sans;-inkscape-font-specification:Sans" />
          <path
             sodipodi:nodetypes="ccc"
             inkscape:connector-curvature="0"
             id="path4843"
             d="m 15.703687,27.95929 c 7.454896,2.383421 11.027259,12.040355 16.5409,18.060524 8.891799,-7.484637 14.064848,-23.373543 26.67535,-22.453946"
             style="fill:#ffffff;stroke:#28568a;stroke-width:1.20205271;stroke-linecap:butt;stroke-linejoin:miter;stroke-miterlimit:4;stroke-opacity:1;stroke-dasharray:none" />
          <path
             inkscape:connector-curvature="0"
             id="path4943"
             d="m 58.426205,25.954688 c -0.188284,3.300771 -0.906244,8.671079 -1.65298,12.363848 -1.178951,5.830238 -2.618623,10.599495 -5.050126,16.72964 -0.971337,2.448885 -1.135308,2.759703 -1.457982,2.763794 -0.199978,0.0016 -9.763945,0.968417 -21.253275,2.146412 -11.489324,1.177985 -20.927443,2.113643 -20.973585,2.07921 -0.04609,-0.03439 -0.08158,-1.89616 -0.07873,-4.137189 0.0049,-4.577059 0.205802,-6.380168 1.188129,-10.710618 0.680277,-2.99887 1.455331,-5.6418 2.519641,-8.591849 1.182692,-3.278226 3.779873,-9.473842 4.089558,-9.75572 0.173923,-0.158305 1.217702,0.303362 2.49891,1.105246 2.216061,1.387032 4.414972,3.945037 8.396871,9.768099 2.149426,3.143305 4.685415,6.499601 5.33075,7.055112 0.215027,0.185097 0.340959,0.119789 1.078541,-0.558822 2.370015,-2.18074 4.468332,-4.610095 7.481284,-8.661698 4.642018,-6.242206 6.825767,-8.685823 9.507612,-10.638986 2.390022,-1.740625 5.229112,-2.762744 7.694844,-2.770243 0.794492,-0.002 0.796901,-7.88e-4 0.764663,0.451613 -0.01774,0.24972 -0.05559,0.862678 -0.08411,1.362151 l 0,0 z"
             style="fill:#ffffff;fill-opacity:1;stroke:#1c3c60;stroke-width:0.42930396999999998;stroke-linecap:square;stroke-linejoin:miter;stroke-miterlimit:4;stroke-opacity:0;stroke-dasharray:none" />
          <path
             inkscape:connector-curvature="0"
             id="path4945"
             d="m 51.163065,24.60371 c -1.001083,0.492369 -2.810886,1.818194 -4.080254,2.989083 -2.261463,2.086042 -3.692931,3.791009 -8.160071,9.719079 -1.319842,1.751457 -2.928872,3.794643 -3.575642,4.540398 -1.30178,1.501022 -2.836128,3.081244 -3.004178,3.093999 -0.192143,0.01222 -2.056356,-2.487186 -4.418157,-5.929215 -3.768549,-5.492136 -5.322169,-7.361817 -7.681054,-9.243834 -0.786543,-0.627542 -1.825974,-1.329241 -2.309813,-1.55932 l -0.879724,-0.418308 0.903222,-0.09182 c 15.773695,-1.602602 33.630903,-3.389894 33.658807,-3.368825 0.02021,0.0153 -0.183666,0.136185 -0.453136,0.268752 l 0,0 z"
             style="fill:#ffffff;fill-opacity:1;stroke:#1c3c60;stroke-width:0.42930396999999998;stroke-linecap:square;stroke-linejoin:miter;stroke-miterlimit:4;stroke-opacity:0;stroke-dasharray:none" />
          <path
             inkscape:connector-curvature="0"
             id="path4957"
             d="m 57.86882,28.004889 c -0.846328,9.028531 -3.79999,20.795923 -7.048423,28.080656 l -0.622975,1.397066 -4.68786,0.469893 c -2.578341,0.258437 -11.673364,1.170024 -20.211185,2.025726 -8.537818,0.855695 -15.824038,1.555814 -16.191605,1.555814 -0.638188,0 -0.668237,-0.19198 -0.666988,-4.260991 0.0019,-7.73473 1.869555,-14.868164 7.057542,-26.963038 0.214221,-0.499442 0.622441,-0.908067 0.907139,-0.908067 0.284688,0 1.591259,0.915568 2.903475,2.034635 1.875519,1.599376 3.33283,3.350045 6.813263,8.184781 4.509488,6.264204 5.631262,7.662781 6.14606,7.662781 0.62575,0 4.507483,-4.360069 9.538633,-10.714052 5.955599,-7.521492 8.214275,-9.660872 11.630191,-11.015956 1.183044,-0.469307 2.717299,-0.91925 3.409427,-0.999862 l 1.258413,-0.146631 -0.05855,1.16992 c -0.03222,0.643456 -0.111667,1.735727 -0.176483,2.427268 z"
             style="fill:#ffffff;fill-opacity:1;stroke:#ffffff;stroke-width:0.85860795000000001;stroke-linecap:square;stroke-linejoin:miter;stroke-miterlimit:4;stroke-opacity:1;stroke-dasharray:none" />
          <path
             inkscape:connector-curvature="0"
             id="path4959"
             d="m 47.676575,26.607847 c -2.262814,1.859411 -3.14699,2.871928 -8.573525,9.817911 -4.586052,5.870171 -6.38754,7.877287 -6.854565,7.63697 -0.16508,-0.08494 -2.154403,-2.747707 -4.420699,-5.917233 -3.279906,-4.587088 -4.636336,-6.206396 -6.648817,-7.937313 l -2.528263,-2.17456 1.185965,-0.155646 c 2.716661,-0.356568 29.323382,-2.958857 29.50845,-2.886118 0.110838,0.04368 -0.639972,0.770765 -1.668546,1.615989 z"
             style="fill:#ffffff;fill-opacity:1;stroke:#ffffff;stroke-width:0.85860795000000001;stroke-linecap:square;stroke-linejoin:miter;stroke-miterlimit:4;stroke-opacity:0;stroke-dasharray:none" />
        </g>
        <flowRoot
           xml:space="preserve"
           id="flowRoot5486"
           style="fill:black;stroke:none;stroke-opacity:1;stroke-width:1px;stroke-linejoin:miter;stroke-linecap:butt;fill-opacity:1;font-family:Sans;font-style:normal;font-weight:normal;font-size:4px;line-height:125%;letter-spacing:0px;word-spacing:0px"><flowRegion
             id="flowRegion5488"><rect
               id="rect5490"
               width="208.09143"
               height="167.68532"
               x="-301.02545"
               y="478.59555" /></flowRegion><flowPara
             id="flowPara5492"></flowPara></flowRoot>        <text
           xml:space="preserve"
           style="font-size:4px;font-style:normal;font-weight:normal;line-height:125%;letter-spacing:0px;word-spacing:0px;fill:#000000;fill-opacity:1;stroke:none;font-family:Sans"
           x="-274.76151"
           y="486.67676"
           id="text5494"
           sodipodi:linespacing="125%"
           transform="matrix(0,-0.26363556,0.31663241,0,-184.70461,96.443462)"><tspan
             sodipodi:role="line"
             id="tspan5496"
             x="-274.76151"
             y="486.67676"
             style="font-size:48px" /></text>
        <flowRoot
           xml:space="preserve"
           id="flowRoot5502"
           style="fill:black;stroke:none;stroke-opacity:1;stroke-width:1px;stroke-linejoin:miter;stroke-linecap:butt;fill-opacity:1;font-family:Sans;font-style:normal;font-weight:normal;font-size:4px;line-height:125%;letter-spacing:0px;word-spacing:0px"><flowRegion
             id="flowRegion5504"><rect
               id="rect5506"
               width="0"
               height="8.0812206"
               x="-197.9899"
               y="646.28088" /></flowRegion><flowPara
             id="flowPara5508"></flowPara></flowRoot>      </g>
    </g>
  </g>
</svg>
