<?xml version="1.0" encoding="UTF-8" standalone="no"?>
<!-- Created with Inkscape (http://www.inkscape.org/) -->

<svg
   xmlns:dc="http://purl.org/dc/elements/1.1/"
   xmlns:cc="http://creativecommons.org/ns#"
   xmlns:rdf="http://www.w3.org/1999/02/22-rdf-syntax-ns#"
   xmlns:svg="http://www.w3.org/2000/svg"
   xmlns="http://www.w3.org/2000/svg"
   xmlns:sodipodi="http://sodipodi.sourceforge.net/DTD/sodipodi-0.dtd"
   xmlns:inkscape="http://www.inkscape.org/namespaces/inkscape"
   width="640px"
   height="480px"
   id="svg3367"
   version="1.1"
   inkscape:version="0.48.4 r9939"
   sodipodi:docname="New document 9">
  <defs
     id="defs3369" />
  <sodipodi:namedview
     id="base"
     pagecolor="#ffffff"
     bordercolor="#666666"
     borderopacity="1.0"
     inkscape:pageopacity="0.0"
     inkscape:pageshadow="2"
     inkscape:zoom="0.77472527"
     inkscape:cx="167.68794"
     inkscape:cy="240"
     inkscape:current-layer="layer1"
     inkscape:document-units="px"
     showgrid="false"
     inkscape:window-width="1333"
     inkscape:window-height="744"
     inkscape:window-x="33"
     inkscape:window-y="24"
     inkscape:window-maximized="1" />
  <metadata
     id="metadata3372">
    <rdf:RDF>
      <cc:Work
         rdf:about="">
        <dc:format>image/svg+xml</dc:format>
        <dc:type
           rdf:resource="http://purl.org/dc/dcmitype/StillImage" />
        <dc:title></dc:title>
      </cc:Work>
    </rdf:RDF>
  </metadata>
  <g
     id="layer1"
     inkscape:label="Layer 1"
     inkscape:groupmode="layer">
    <g
       inkscape:label="Layer 1"
       id="layer1-0"
       transform="matrix(10.014876,0,0,7.4829623,-6.7772699e-4,0.83621853)">
      <g
         transform="matrix(1.0514548,0,0,1.5079533,-1.7054589,-31.193892)"
         id="g3330">
        <g
           id="g4656"
           style="fill:#3968ff;fill-opacity:1;stroke:#000000;stroke-width:0.53373206;stroke-linecap:square;stroke-linejoin:miter;stroke-miterlimit:4;stroke-opacity:0.35406704;stroke-dasharray:none"
           transform="matrix(0.01781575,0.57343702,-0.68871117,0.02139704,28.248267,22.310798)">
          <path
             d="m 71.657514,-23.225505 -1.578291,36.01339 -19.723452,2.76826 1.435786,-35.421244 z"
             style="fill:#3968ff;fill-opacity:1;stroke:#000000;stroke-width:0.53373206;stroke-linecap:square;stroke-linejoin:miter;stroke-miterlimit:4;stroke-opacity:0.35406704;stroke-dasharray:none"
             id="path4819"
             inkscape:connector-curvature="0"
             sodipodi:nodetypes="ccccc" />
          <path
             d="m 34.471631,-24.853353 -25.2941319,3.166947 37.0333489,1.695999 25.294133,-3.166948 z"
             style="fill:#3968ff;fill-opacity:1;stroke:#000000;stroke-width:0.53373206;stroke-linecap:square;stroke-linejoin:miter;stroke-miterlimit:4;stroke-opacity:0.35406704;stroke-dasharray:none"
             id="path4821"
             inkscape:connector-curvature="0" />
          <path
             d="m 9.2276753,-21.723828 -1.1877808,35.825869 40.9749025,1.410524 2.908324,-35.28109 z"
             style="fill:#3968ff;fill-opacity:1;stroke:#000000;stroke-width:0.53373206;stroke-linecap:square;stroke-linejoin:miter;stroke-miterlimit:4;stroke-opacity:0.35406704;stroke-dasharray:none"
             id="path4823"
             inkscape:connector-curvature="0"
             sodipodi:nodetypes="ccccc" />
          <path
             d="m 38.256529,-24.71432 -1.449456,35.961929 33.543709,1.536185 1.449456,-35.961929 z"
             style="fill:#3968ff;fill-opacity:1;stroke:#000000;stroke-width:0.53373206;stroke-linecap:square;stroke-linejoin:miter;stroke-miterlimit:4;stroke-opacity:0.35406704;stroke-dasharray:none"
             id="path4825"
             inkscape:connector-curvature="0" />
          <path
             d="m 33.260382,10.97119 -25.2709822,3.16851 36.9990182,1.694427 5.339,0.04908 19.931983,-3.217595 z"
             style="fill:#3968ff;fill-opacity:1;stroke:#000000;stroke-width:0.53373206;stroke-miterlimit:4;stroke-opacity:0.35406704;stroke-dasharray:none"
             id="path4827"
             inkscape:connector-curvature="0"
             sodipodi:nodetypes="cccccc" />
          <path
             d="M 38.337992,-24.634551 37.13138,11.187784 7.5571697,14.10013 8.496713,-22.153497 z"
             style="fill:#3968ff;fill-opacity:1;stroke:#000000;stroke-width:0.53792018;stroke-linecap:square;stroke-linejoin:miter;stroke-miterlimit:4;stroke-opacity:0.35406704;stroke-dasharray:none"
             id="path4829"
             inkscape:connector-curvature="0"
             sodipodi:nodetypes="ccccc" />
          <path
             inkscape:connector-curvature="0"
             id="path5510"
             d="m 472.85713,707.36218 c 0,34.32056 -45.41112,62.14286 -101.42857,62.14286 -56.01746,0 -101.42858,-27.8223 -101.42858,-62.14286 0,-34.32055 45.41112,-62.14286 101.42858,-62.14286 56.01745,0 101.42857,27.82231 101.42857,62.14286 z"
             style="fill:#ffffff;stroke:#000000;stroke-width:2.74099994"
             transform="matrix(0.01051552,-0.17125281,0.21322071,0.00844577,-131.88916,52.221416)" />
        </g>
        <g
           id="g5036"
           transform="matrix(0.0120071,0.38647383,-0.46416403,0.01442071,30.973831,20.49536)"
           style="fill:none;stroke:#000000;stroke-width:1.44894075;stroke-miterlimit:4;stroke-opacity:1;stroke-dasharray:none">
          <path
             sodipodi:nodetypes="ccccc"
             inkscape:connector-curvature="0"
             id="rect4769-4"
             d="M 17.429409,-27.285373 3.3299168,-54.758974 45.829012,-65.532852 60.902236,-30.936136 z"
             style="fill:#3968ff;fill-opacity:1;stroke:#28568a;stroke-width:1.44894075;stroke-linecap:square;stroke-linejoin:miter;stroke-miterlimit:4;stroke-opacity:1;stroke-dasharray:none" />
          <path
             sodipodi:nodetypes="ccc"
             inkscape:connector-curvature="0"
             id="path4843-4"
             d="M 60.361123,-31.702654 30.930138,-44.580754 18.392494,-27.37182"
             style="fill:#ffffff;stroke:#28568a;stroke-width:2.90052652;stroke-linecap:butt;stroke-linejoin:miter;stroke-miterlimit:4;stroke-opacity:1;stroke-dasharray:none" />
          <path
             sodipodi:nodetypes="ccc"
             inkscape:connector-curvature="0"
             id="path4843-4-8"
             d="m 3.8759242,-54.292658 26.4173028,9.304355 15.286472,-20.15718"
             style="fill:#ffffff;stroke:#28568a;stroke-width:2.92014766;stroke-linecap:butt;stroke-linejoin:miter;stroke-miterlimit:4;stroke-opacity:1;stroke-dasharray:none" />
        </g>
        <g
           style="fill:none;stroke:#000000;stroke-width:1.44883454;stroke-miterlimit:4;stroke-opacity:1;stroke-dasharray:none"
           id="g5028"
           transform="matrix(0.0120071,0.38647383,-0.46416403,0.01442071,1.0533775,20.550025)">
          <path
             sodipodi:nodetypes="cccccccccccccccccc"
             inkscape:connector-curvature="0"
             id="rect4769"
             d="m 8.9078601,-0.9946143 0.599742,-0.06041 43.7807549,-4.416219 0.645869,-0.06515 0.135981,-0.587233 c 5.371677,-11.7178257 7.422578,-23.7560707 8.21157,-35.4603277 l 0.146508,-0.632389 -0.645865,0.06512 -43.780746,4.416232 -0.599742,0.06039 -0.146501,0.632429 c -5.498647,11.585935 -9.3308199,23.3489 -8.2115829,35.4603247 z m 1.3036649,-1.225597 C 9.0481881,-14.03289 13.094996,-25.385433 18.318922,-36.575879 l 42.581296,-4.295212 c -0.455693,11.362711 -2.858362,22.739953 -7.939622,34.2857797 z"
             style="font-size:medium;font-style:normal;font-variant:normal;font-weight:normal;font-stretch:normal;text-indent:0;text-align:start;text-decoration:none;line-height:normal;letter-spacing:normal;word-spacing:normal;text-transform:none;direction:ltr;block-progression:tb;writing-mode:lr-tb;text-anchor:start;baseline-shift:baseline;color:#000000;fill:#28568a;fill-opacity:1;fill-rule:nonzero;stroke:none;stroke-width:0.83264697;marker:none;visibility:visible;display:inline;overflow:visible;enable-background:accumulate;font-family:Sans;-inkscape-font-specification:Sans" />
          <path
             sodipodi:nodetypes="ccc"
             inkscape:connector-curvature="0"
             id="path4843"
             d="m 17.965347,-36.443111 c 7.454896,2.383421 17.246824,17.972155 16.314734,23.521546 3.237649,-7.20217 14.291014,-28.834565 26.901516,-27.914968"
             style="fill:#3968ff;fill-opacity:1;fill-rule:nonzero;stroke:#28568a;stroke-width:1.20205271;stroke-linecap:butt;stroke-linejoin:miter;stroke-miterlimit:4;stroke-opacity:1;stroke-dasharray:none" />
          <path
             inkscape:connector-curvature="0"
             id="path4943"
             d="m 60.687865,-38.447713 c -0.184523,3.291376 -0.513426,7.68987 -1.65298,12.363848 -1.412653,5.794117 -2.618623,10.599495 -5.050126,16.7296397 -0.971337,2.448885 -1.135308,2.759703 -1.457982,2.763794 -0.199978,0.0016 -9.763945,0.968417 -21.253275,2.146412 -11.489324,1.177985 -20.927443,2.113643 -20.973585,2.07921 -0.04609,-0.03439 -0.08158,-1.89616 -0.07873,-4.137189 0.0049,-4.5770587 0.205802,-6.3801677 1.188129,-10.7106177 0.680277,-2.99887 1.455331,-5.6418 2.519641,-8.591849 1.182692,-3.278226 3.779873,-9.473842 4.089558,-9.75572 0.173923,-0.158305 1.217702,0.303362 2.49891,1.105246 2.216061,1.387032 4.414972,3.945037 8.396871,9.768099 2.149426,3.143305 8.86774,16.4514987 5.104584,10.727179 -3.366428,-5.120839 0.454042,0.3081 1.191624,-0.370511 2.370015,-2.18074 4.581415,-8.470473 7.594367,-12.522076 4.642018,-6.242206 6.825767,-8.685823 9.507612,-10.638986 2.390022,-1.740625 5.229112,-2.762744 7.694844,-2.770243 0.794492,-0.002 0.796901,-7.88e-4 0.764663,0.451613 -0.01774,0.24972 -0.05559,0.862678 -0.08411,1.362151 l 0,0 z"
             style="fill:#ffffff;fill-opacity:1;fill-rule:nonzero;stroke:#ffffff;stroke-width:0.42930397;stroke-linecap:square;stroke-linejoin:miter;stroke-miterlimit:4;stroke-opacity:0;stroke-dasharray:none"
             sodipodi:nodetypes="csscsccssscsscssccccc" />
        </g>
      </g>
    </g>
  </g>
</svg>
