<?xml version="1.0" encoding="UTF-8" standalone="no"?>
<!-- Created with Inkscape (http://www.inkscape.org/) -->

<svg
   xmlns:osb="http://www.openswatchbook.org/uri/2009/osb"
   xmlns:dc="http://purl.org/dc/elements/1.1/"
   xmlns:cc="http://creativecommons.org/ns#"
   xmlns:rdf="http://www.w3.org/1999/02/22-rdf-syntax-ns#"
   xmlns:svg="http://www.w3.org/2000/svg"
   xmlns="http://www.w3.org/2000/svg"
   xmlns:sodipodi="http://sodipodi.sourceforge.net/DTD/sodipodi-0.dtd"
   xmlns:inkscape="http://www.inkscape.org/namespaces/inkscape"
   width="744.09448819"
   height="1052.3622047"
   id="svg5566"
   version="1.1"
   inkscape:version="0.48.4 r9939"
   sodipodi:docname="New document 28">
  <defs
     id="defs5568">
    <linearGradient
       id="linearGradient6404"
       osb:paint="solid">
      <stop
         style="stop-color:#76db12;stop-opacity:1;"
         offset="0"
         id="stop6406" />
    </linearGradient>
    <linearGradient
       id="linearGradient3911"
       osb:paint="solid">
      <stop
         style="stop-color:#000000;stop-opacity:1;"
         offset="0"
         id="stop3913" />
    </linearGradient>
    <inkscape:perspective
       id="perspective4654"
       inkscape:persp3d-origin="398.31121 : 220.47772 : 1"
       inkscape:vp_z="1.7378616e-14 : 283.81434 : 0"
       inkscape:vp_y="-173.64818 : 984.80777 : 0"
       inkscape:vp_x="-366.3504 : -10.021929 : 0"
       sodipodi:type="inkscape:persp3d" />
  </defs>
  <sodipodi:namedview
     id="base"
     pagecolor="#ffffff"
     bordercolor="#666666"
     borderopacity="1.0"
     inkscape:pageopacity="0.0"
     inkscape:pageshadow="2"
     inkscape:zoom="0.49497475"
     inkscape:cx="349.00475"
     inkscape:cy="519.03285"
     inkscape:document-units="px"
     inkscape:current-layer="g5028"
     showgrid="false"
     inkscape:window-width="1333"
     inkscape:window-height="744"
     inkscape:window-x="33"
     inkscape:window-y="24"
     inkscape:window-maximized="1" />
  <metadata
     id="metadata5571">
    <rdf:RDF>
      <cc:Work
         rdf:about="">
        <dc:format>image/svg+xml</dc:format>
        <dc:type
           rdf:resource="http://purl.org/dc/dcmitype/StillImage" />
        <dc:title></dc:title>
      </cc:Work>
    </rdf:RDF>
  </metadata>
  <g
     inkscape:label="Layer 1"
     inkscape:groupmode="layer"
     id="layer1">
    <g
       id="layer1-21"
       inkscape:label="Layer 1"
       transform="translate(0.26649143,-17.01355)">
      <g
         transform="translate(-0.21474872,8.4078767)"
         inkscape:label="Layer 1"
         id="layer1-2">
        <path
           inkscape:connector-curvature="0"
           id="path4198"
           style="font-size:35.61316681000000273px;font-style:normal;font-variant:normal;font-weight:normal;font-stretch:normal;text-align:center;line-height:0%;letter-spacing:0px;word-spacing:0px;text-anchor:middle;fill:#000000;fill-opacity:1;stroke:none;font-family:Matchbook;-inkscape-font-specification:Matchbook"
           d="m 280.01068,320.78742 c 2.37321,2.2e-4 4.35099,0.93531 5.93329,2.80525 1.97766,1.49632 2.96656,3.55355 2.96666,6.17157 -1e-4,2.24441 -0.98896,4.30159 -2.96666,6.17156 -1.58224,1.49632 -3.56008,2.2444 -5.93329,2.2442 l -53.99306,0 0,194.68471 c -4e-5,2.24421 -0.79121,4.3014 -2.37331,6.17156 -1.58224,1.49616 -3.75781,2.24421 -6.52664,2.24421 -2.37336,0 -4.54889,-0.748 -6.52663,-2.24421 -1.58224,-1.87016 -2.37335,-3.92735 -2.37333,-6.17156 l 0,-403.95675 c -2e-5,-2.24378 0.79104,-4.11396 2.37333,-5.6105 1.97774,-1.86975 4.15327,-2.80485 6.52663,-2.80526 l 62.89301,0 c 2.37321,4.1e-4 4.35099,0.93548 5.93329,2.80526 1.97766,1.49648 2.96656,3.36672 2.96666,5.6105 -1e-4,2.61865 -0.98896,4.86286 -2.96666,6.73261 -1.58224,1.49648 -3.56008,2.24461 -5.93329,2.24421 l -53.99306,0 0,182.90264 53.99306,0 0,0" />
        <path
           inkscape:connector-curvature="0"
           id="path4200"
           style="font-size:35.61316681000000273px;font-style:normal;font-variant:normal;font-weight:normal;font-stretch:normal;text-align:center;line-height:0%;letter-spacing:0px;word-spacing:0px;text-anchor:middle;fill:#000000;fill-opacity:1;stroke:none;font-family:Matchbook;-inkscape-font-specification:Matchbook"
           d="m 379.51401,541.28048 c -11.47111,0 -21.16216,-3.55332 -29.07318,-10.65997 -7.51554,-7.48066 -11.2733,-16.45748 -11.27327,-26.93045 l 0,-374.22105 c -3e-5,-2.61782 0.79104,-4.67501 2.37331,-6.17155 1.97774,-1.86975 4.15328,-2.80485 6.52664,-2.80526 5.93326,4.1e-4 8.89991,2.99269 8.89996,8.97681 l 0,374.22105 c -5e-5,5.61054 2.17548,10.47297 6.52663,14.58733 4.35102,4.11438 9.69099,6.17158 16.01991,6.17156 2.37325,2e-5 4.35102,0.93516 5.93331,2.80526 1.97769,1.49616 2.96657,3.3663 2.96665,5.6105 -8e-5,2.61824 -0.98896,4.67543 -2.96665,6.17156 -1.58224,1.49616 -3.56006,2.24421 -5.93331,2.24421" />
        <path
           inkscape:connector-curvature="0"
           id="path4202"
           style="font-size:35.61316681000000273px;font-style:normal;font-variant:normal;font-weight:normal;font-stretch:normal;text-align:center;line-height:0%;letter-spacing:0px;word-spacing:0px;text-anchor:middle;fill:#000000;fill-opacity:1;stroke:none;font-family:Matchbook;-inkscape-font-specification:Matchbook"
           d="m 513.90331,121.05595 c 2.37323,0.37715 4.351,1.50718 5.93331,3.39056 1.58207,1.50735 2.17543,3.57934 1.77998,6.21602 l -31.44649,205.69401 0,199.47799 c -8e-5,5.65094 -2.96672,8.47641 -8.89996,8.47641 -2.37338,0 -4.54893,-0.75335 -6.52664,-2.26039 -1.58224,-1.50687 -2.37336,-3.57892 -2.37331,-6.21602 l 0,-199.47799 -30.85318,-205.69401 c -0.7912,-5.65053 1.77997,-8.85271 7.71329,-9.60658 2.3733,-0.75305 4.54883,-0.37637 6.52664,1.13019 1.97773,1.50735 3.1644,3.39099 3.55998,5.65094 l 21.95322,147.48938 22.54654,-147.48938 c 0.39552,-2.25995 1.38432,-4.14359 2.96666,-5.65094 1.97769,-1.5064 4.351,-1.88322 7.11996,-1.13019" />
        <g
           id="g4656"
           style="fill:#6cd400;fill-opacity:1;stroke:#000000;stroke-width:0.53373205999999995;stroke-linecap:square;stroke-linejoin:miter;stroke-miterlimit:4;stroke-opacity:0.35406704000000000;stroke-dasharray:none"
           transform="matrix(0,6.7266572,-8.078872,0,320.64181,493.64349)">
          <path
             d="m 71.657514,-23.225505 -1.578291,36.01339 -19.723452,2.76826 1.435786,-35.421244 z"
             style="fill:#6cd400;fill-opacity:1;stroke:#000000;stroke-width:0.53373205999999995;stroke-linecap:square;stroke-linejoin:miter;stroke-miterlimit:4;stroke-opacity:0.35406704000000000;stroke-dasharray:none"
             id="path4819"
             inkscape:connector-curvature="0"
             sodipodi:nodetypes="ccccc" />
          <path
             d="m 34.471631,-24.853353 -25.2941319,3.166947 37.0333489,1.695999 25.294133,-3.166948 z"
             style="fill:#6cd400;fill-opacity:1;stroke:#000000;stroke-width:0.53373205999999995;stroke-linecap:square;stroke-linejoin:miter;stroke-miterlimit:4;stroke-opacity:0.35406704000000000;stroke-dasharray:none"
             id="path4821"
             inkscape:connector-curvature="0" />
          <path
             d="m 9.2276753,-21.723828 -1.1877808,35.825869 40.9749025,1.410524 2.908324,-35.28109 z"
             style="fill:#6cd400;fill-opacity:1;stroke:#000000;stroke-width:0.53373205999999995;stroke-linecap:square;stroke-linejoin:miter;stroke-miterlimit:4;stroke-opacity:0.35406704000000000;stroke-dasharray:none"
             id="path4823"
             inkscape:connector-curvature="0"
             sodipodi:nodetypes="ccccc" />
          <path
             d="m 38.256529,-24.71432 -1.449456,35.961929 33.543709,1.536185 1.449456,-35.961929 z"
             style="fill:#00ea10;fill-opacity:1;stroke:#000000;stroke-width:0.53373205999999995;stroke-linecap:square;stroke-linejoin:miter;stroke-miterlimit:4;stroke-opacity:0.35406704000000000;stroke-dasharray:none"
             id="path4825"
             inkscape:connector-curvature="0" />
          <path
             d="m 33.260382,10.97119 -25.2709822,3.16851 36.9990182,1.694427 5.339,0.04908 19.931983,-3.217595 z"
             style="fill:#00ea10;fill-opacity:1;stroke:#000000;stroke-width:0.53373205999999995;stroke-miterlimit:4;stroke-opacity:0.35406704000000000;stroke-dasharray:none"
             id="path4827"
             inkscape:connector-curvature="0"
             sodipodi:nodetypes="cccccc" />
          <path
             d="M 38.337992,-24.634551 37.13138,11.187784 7.5571697,14.10013 8.7637834,-21.722205 z"
             style="fill:#00ea10;fill-opacity:1;stroke:#000000;stroke-width:0.53792017999999997;stroke-linecap:square;stroke-linejoin:miter;stroke-miterlimit:4;stroke-opacity:0.35406704000000000;stroke-dasharray:none"
             id="path4829"
             inkscape:connector-curvature="0" />
          <path
             sodipodi:type="arc"
             style="fill:#ffffff;fill-opacity:1;stroke:#000000;stroke-width:4.25417337;stroke-linecap:square;stroke-linejoin:miter;stroke-miterlimit:4;stroke-opacity:1;stroke-dasharray:none"
             id="path5510"
             sodipodi:cx="371.42856"
             sodipodi:cy="707.36218"
             sodipodi:rx="101.42857"
             sodipodi:ry="62.14286"
             d="m 472.85713,707.36218 c 0,34.32056 -45.41112,62.14286 -101.42857,62.14286 -56.01746,0 -101.42858,-27.8223 -101.42858,-62.14286 0,-34.32055 45.41112,-62.14286 101.42858,-62.14286 56.01745,0 101.42857,27.82231 101.42857,62.14286 z"
             transform="matrix(0.01051552,-0.17125281,0.21322071,0.00844577,-131.88916,52.221416)" />
        </g>
        <g
           id="g5036"
           transform="matrix(0,4.5335002,-5.4448394,0,353.24392,473.36057)"
           style="fill:none;stroke:#000000;stroke-width:1.44894075;stroke-miterlimit:4;stroke-opacity:1;stroke-dasharray:none">
          <path
             sodipodi:nodetypes="ccccc"
             inkscape:connector-curvature="0"
             id="rect4769-4"
             d="M 17.429409,-27.285373 8.45454,-61.482992 50.117244,-70.109587 60.902236,-30.936136 z"
             style="fill:#ffffff;stroke:#000000;stroke-width:1.44894075000000000;stroke-linecap:square;stroke-linejoin:miter;stroke-miterlimit:4;stroke-opacity:1;stroke-dasharray:none" />
          <path
             sodipodi:nodetypes="ccc"
             inkscape:connector-curvature="0"
             id="path4843-4"
             d="M 60.361123,-31.702654 35.115689,-47.72483 17.888802,-27.38485"
             style="fill:#ffffff;stroke:#000000;stroke-width:2.90052652000000011;stroke-linecap:butt;stroke-linejoin:miter;stroke-miterlimit:4;stroke-opacity:1;stroke-dasharray:none" />
          <path
             sodipodi:nodetypes="ccc"
             inkscape:connector-curvature="0"
             id="path4843-4-8"
             d="M 9.5198886,-61.423033 34.746032,-47.719136 50.122386,-69.785601"
             style="fill:#ffffff;stroke:#000000;stroke-width:2.92014766000000003;stroke-linecap:butt;stroke-linejoin:miter;stroke-miterlimit:4;stroke-opacity:1;stroke-dasharray:none" />
        </g>
        <g
           style="fill:none;stroke:#000000;stroke-width:2.92010313;stroke-miterlimit:4;stroke-opacity:1;stroke-dasharray:none"
           id="g5028"
           transform="matrix(0,4.5335002,-5.4448394,0,2.5830087,463.10731)">
          <path
             sodipodi:nodetypes="cccccccccccccccccc"
             inkscape:connector-curvature="0"
             id="rect4769"
             d="m 8.9078601,-0.9946143 0.599742,-0.06041 43.7807549,-4.416219 0.645869,-0.06515 0.135981,-0.587233 c 5.371677,-11.7178257 7.422578,-23.7560707 8.21157,-35.4603277 l 0.146508,-0.632389 -0.645865,0.06512 -43.780746,4.416232 -0.599742,0.06039 -0.146501,0.632429 c -5.498647,11.585935 -9.3308199,23.3489 -8.2115829,35.4603247 z m 1.3036649,-1.225597 C 9.0481881,-14.03289 13.094996,-25.385433 18.318922,-36.575879 l 42.581296,-4.295212 c -0.455693,11.362711 -2.858362,22.739953 -7.939622,34.2857797 z"
             style="font-size:medium;font-style:normal;font-variant:normal;font-weight:normal;font-stretch:normal;text-indent:0;text-align:start;text-decoration:none;line-height:normal;letter-spacing:normal;word-spacing:normal;text-transform:none;direction:ltr;block-progression:tb;writing-mode:lr-tb;text-anchor:start;baseline-shift:baseline;color:#000000;fill:#000000;fill-opacity:1;fill-rule:nonzero;stroke:none;stroke-width:2.92010313;marker:none;visibility:visible;display:inline;overflow:visible;enable-background:accumulate;font-family:Sans;-inkscape-font-specification:Sans;stroke-miterlimit:4;stroke-dasharray:none" />
          <path
             sodipodi:nodetypes="ccc"
             inkscape:connector-curvature="0"
             id="path4843"
             d="m 17.965347,-36.443111 c 7.454896,2.383421 17.246824,17.972155 16.314734,23.521546 3.237649,-7.20217 14.291014,-28.834565 26.901516,-27.914968"
             style="fill:#ffffff;stroke:#000000;stroke-width:2.92010313;stroke-linecap:butt;stroke-linejoin:miter;stroke-miterlimit:4;stroke-opacity:1;stroke-dasharray:none;fill-opacity:1" />
          <path
             inkscape:connector-curvature="0"
             id="path4943"
             d="m 60.687865,-38.447713 c -0.184523,3.291376 -0.513426,7.68987 -1.65298,12.363848 -1.412653,5.794117 -2.618623,10.599495 -5.050126,16.7296397 -0.971337,2.448885 -1.135308,2.759703 -1.457982,2.763794 -0.199978,0.0016 -9.763945,0.968417 -21.253275,2.146412 -11.489324,1.177985 -20.927443,2.113643 -20.973585,2.07921 -0.04609,-0.03439 -0.08158,-1.89616 -0.07873,-4.137189 0.0049,-4.5770587 0.205802,-6.3801677 1.188129,-10.7106177 0.680277,-2.99887 1.455331,-5.6418 2.519641,-8.591849 1.182692,-3.278226 3.779873,-9.473842 4.089558,-9.75572 0.173923,-0.158305 1.217702,0.303362 2.49891,1.105246 2.216061,1.387032 4.414972,3.945037 8.396871,9.768099 2.149426,3.143305 5.748297,11.833579 6.107272,11.214182 0.744115,-1.283939 -0.771466,0.284909 0.133231,-0.115415 2.370015,-2.18074 4.63712,-9.212572 7.650072,-13.264175 4.642018,-6.242206 6.825767,-8.685823 9.507612,-10.638986 2.390022,-1.740625 5.229112,-2.762744 7.694844,-2.770243 0.794492,-0.002 0.796901,-7.88e-4 0.764663,0.451613 -0.01774,0.24972 -0.05559,0.862678 -0.08411,1.362151 l 0,0 z"
             style="fill:#ffffff;fill-opacity:1;stroke:#000000;stroke-width:1.12714207;stroke-linecap:square;stroke-linejoin:miter;stroke-miterlimit:4;stroke-opacity:1;stroke-dasharray:none"
             sodipodi:nodetypes="csscsccssscsscssccccc" />
        </g>
        <flowRoot
           xml:space="preserve"
           id="flowRoot5486"
           style="font-size:4px;font-style:normal;font-weight:normal;line-height:125%;letter-spacing:0px;word-spacing:0px;fill:#000000;fill-opacity:1;stroke:none;font-family:Sans"
           transform="matrix(0,3.3503455,-4.023843,0,102.58339,612.63982)"><flowRegion
             id="flowRegion5488"><rect
               id="rect5490"
               width="208.09143"
               height="167.68532"
               x="-301.02545"
               y="478.59555" /></flowRegion><flowPara
             id="flowPara5492" /></flowRoot>        <text
           xml:space="preserve"
           style="font-size:4.24331236px;font-style:normal;font-weight:normal;line-height:125%;letter-spacing:0px;word-spacing:0px;fill:#000000;fill-opacity:1;stroke:none;font-family:Sans"
           x="-576.96466"
           y="510.09592"
           id="text5494"
           sodipodi:linespacing="125%"><tspan
             sodipodi:role="line"
             id="tspan5496"
             x="-576.96466"
             y="510.09592"
             style="font-size:50.9197464px" /></text>
        <flowRoot
           xml:space="preserve"
           id="flowRoot5502"
           style="font-size:4px;font-style:normal;font-weight:normal;line-height:125%;letter-spacing:0px;word-spacing:0px;fill:#000000;fill-opacity:1;stroke:none;font-family:Sans"
           transform="matrix(0,3.3503455,-4.023843,0,102.58339,612.63982)"><flowRegion
             id="flowRegion5504"><rect
               id="rect5506"
               width="0"
               height="8.0812206"
               x="-197.9899"
               y="646.28088" /></flowRegion><flowPara
             id="flowPara5508" /></flowRoot>      </g>
    </g>
  </g>
</svg>
