<?xml version="1.0" encoding="UTF-8" standalone="no"?>
<!-- Created with Inkscape (http://www.inkscape.org/) -->

<svg
   xmlns:dc="http://purl.org/dc/elements/1.1/"
   xmlns:cc="http://creativecommons.org/ns#"
   xmlns:rdf="http://www.w3.org/1999/02/22-rdf-syntax-ns#"
   xmlns:svg="http://www.w3.org/2000/svg"
   xmlns="http://www.w3.org/2000/svg"
   version="1.1"
   width="64"
   height="64"
   id="svg2985">
  <defs
     id="defs2987" />
  <metadata
     id="metadata2990">
    <rdf:RDF>
      <cc:Work
         rdf:about="">
        <dc:format>image/svg+xml</dc:format>
        <dc:type
           rdf:resource="http://purl.org/dc/dcmitype/StillImage" />
        <dc:title></dc:title>
      </cc:Work>
    </rdf:RDF>
  </metadata>
  <g
     id="layer1">
    <g
       transform="translate(0.02649813,-0.32402901)"
       id="g3064">
      <path
         d="M 32.397399,56.953312 C 31.891691,56.589581 29.265874,54.473771 28.791877,54.048084 28.679441,53.947108 28.435773,53.743278 28.250386,53.59513 27.724121,53.174573 25.995673,51.750868 25.496407,51.326717 24.977153,50.885582 22.682566,48.990714 21.650298,48.150612 20.955521,47.585168 20.241078,46.991789 18.58952,45.608479 18.120696,45.215806 17.563369,44.77507 17.351021,44.629074 17.138671,44.48307 16.870544,44.238695 16.755182,44.086015 16.574858,43.847352 15.614593,43.795823 9.9089124,43.718632 L 3.272381,43.628842 2.63258,43.17333 C 1.6814027,42.496129 1.2685623,41.878037 1.0707546,40.835001 0.84364636,39.637463 0.83879205,25.297963 1.0650264,23.916657 c 0.093383,-0.570139 0.2949307,-1.161768 0.4478911,-1.31473 0.1529604,-0.152962 0.2781107,-0.342406 0.2781107,-0.420996 0,-0.07861 0.3434324,-0.375841 0.7631839,-0.66057 l 0.763184,-0.517687 6.5544058,-0.08979 6.5544061,-0.08979 0.987648,-0.813445 c 1.727739,-1.422996 3.078375,-2.542863 4.211525,-3.491964 0.468823,-0.392675 1.021241,-0.832214 1.227594,-0.97675 0.206358,-0.144535 0.507658,-0.388907 0.669566,-0.543052 0.161907,-0.154144 0.491286,-0.441878 0.731949,-0.639407 0.240666,-0.197532 0.879529,-0.722782 1.419697,-1.167225 0.540173,-0.444443 1.133804,-0.929292 1.319187,-1.077438 0.185383,-0.148145 0.429055,-0.350531 0.541489,-0.449741 0.11244,-0.09922 0.648873,-0.542537 1.192078,-0.985179 0.543211,-0.442642 1.028055,-0.8523858 1.077437,-0.9105436 0.368118,-0.4335316 2.98096,-2.3436405 3.323464,-2.4296028 0.570634,-0.1432207 1.663137,0.2319322 1.885524,0.6474691 0.107577,0.2010068 0.178195,2.6870493 0.178195,6.2731043 0,3.420314 0.07251,6.072413 0.170873,6.251958 0.840379,1.533547 1.40271,3.501408 2.013381,7.045795 0.260237,1.510427 0.260237,8.006926 0,9.517354 -0.495609,2.876549 -1.112785,5.331326 -1.467311,5.836114 -0.548009,0.78029 -0.624197,1.590641 -0.714309,7.597438 l -0.09244,6.16085 -0.448932,0.344666 c -0.596444,0.457921 -1.571272,0.431907 -2.255446,-0.06021 z"
         id="path3058"
         style="fill:#ffffff;fill-opacity:1;fill-rule:nonzero;stroke:#ffffff;stroke-width:1.79572785;stroke-linecap:butt;stroke-linejoin:round;stroke-miterlimit:4;stroke-opacity:1;stroke-dasharray:none;stroke-dashoffset:0" />
      <path
         d="m 41.757897,47.890099 c -0.955888,-0.69244 -1.279003,-1.638954 -0.962924,-2.820731 0.119016,-0.445002 0.335923,-0.928623 0.482015,-1.074709 0.146086,-0.146091 0.265613,-0.334879 0.265613,-0.419537 0,-0.08468 0.10101,-0.264114 0.224466,-0.398793 0.926703,-1.010964 2.498703,-4.806258 2.827355,-6.826107 0.116766,-0.717644 0.285958,-1.692618 0.375973,-2.166614 0.09002,-0.473998 0.162192,-1.322478 0.160397,-1.885513 -0.0046,-1.417535 -0.596765,-4.916291 -1.069981,-6.321103 -0.439416,-1.304473 -1.961124,-4.489317 -2.144977,-4.489317 -0.06526,0 -0.347242,-0.4515 -0.62666,-1.003331 -0.400524,-0.791005 -0.489454,-1.168185 -0.420228,-1.782337 0.158039,-1.402111 1.290496,-2.418814 2.696369,-2.420759 1.432886,-0.002 2.035419,0.551778 3.684087,3.385886 0.323931,0.556855 0.712818,1.295288 0.864186,1.640963 0.151373,0.345682 0.383774,0.870929 0.516459,1.167226 0.132676,0.296297 0.444964,1.144778 0.693961,1.885511 1.684046,5.009757 1.646153,10.936168 -0.102756,16.071764 -0.994061,2.919035 -3.071114,6.589614 -4.250787,7.512038 -0.893991,0.699038 -2.202968,0.676814 -3.212568,-0.05453 l 0,0 z"
         id="path3060"
         style="fill:#ffffff;fill-opacity:1;fill-rule:nonzero;stroke:#ffffff;stroke-width:1.79572785;stroke-linecap:butt;stroke-linejoin:round;stroke-miterlimit:4;stroke-opacity:1;stroke-dasharray:none;stroke-dashoffset:0" />
      <path
         d="m 52.523399,53.246047 c -0.330907,-0.09524 -0.770382,-0.330385 -0.976619,-0.522524 -0.20623,-0.192132 -0.427837,-0.349332 -0.492451,-0.349332 -0.06462,0 -0.312002,-0.378565 -0.549749,-0.84126 -0.556827,-1.083659 -0.560768,-2.384892 -0.01009,-3.345265 0.571825,-0.997322 0.987984,-1.63633 1.136118,-1.744507 0.285763,-0.208678 2.112907,-3.94903 2.629105,-5.382053 1.023796,-2.842188 1.29988,-4.336246 1.413991,-7.651992 0.110386,-3.207283 -0.09864,-5.828966 -0.599702,-7.521911 -0.784042,-2.64903 -1.131386,-3.572194 -1.959397,-5.207609 -0.874795,-1.727824 -1.815507,-3.304089 -2.095118,-3.510598 -0.0735,-0.05428 -0.283746,-0.539136 -0.467192,-1.077437 -0.288391,-0.846253 -0.304748,-1.104723 -0.120852,-1.909706 0.273411,-1.196831 0.63727,-1.737688 1.575853,-2.342408 0.626601,-0.403719 0.961794,-0.488924 1.925863,-0.489583 0.974613,-6.66e-4 1.285756,0.0797 1.885518,0.48699 0.395059,0.268285 0.919588,0.791905 1.165619,1.163595 0.24603,0.371696 0.492331,0.716212 0.547332,0.765597 0.26125,0.234562 1.954367,3.30389 2.573975,4.666177 1.165369,2.562215 2.203327,5.971436 2.625074,8.622207 0.327348,2.057432 0.420085,6.077256 0.194712,8.43992 -0.249577,2.616361 -0.972383,5.920879 -1.630056,7.45227 -0.08485,0.197529 -0.252888,0.680186 -0.373459,1.072574 -0.491531,1.599622 -2.366224,5.176483 -3.672572,7.007166 -1.570535,2.200909 -2.794294,2.7757 -4.725866,2.219689 l 0,0 z"
         id="path3062"
         style="fill:#ffffff;fill-opacity:1;fill-rule:nonzero;stroke:#ffffff;stroke-width:1.79572785;stroke-linecap:butt;stroke-linejoin:round;stroke-miterlimit:4;stroke-opacity:1;stroke-dasharray:none;stroke-dashoffset:0" />
    </g>
  </g>
</svg>
