<?xml version="1.0" encoding="UTF-8" standalone="no"?>
<!-- Created with Inkscape (http://www.inkscape.org/) -->

<svg
   xmlns:dc="http://purl.org/dc/elements/1.1/"
   xmlns:cc="http://creativecommons.org/ns#"
   xmlns:rdf="http://www.w3.org/1999/02/22-rdf-syntax-ns#"
   xmlns:svg="http://www.w3.org/2000/svg"
   xmlns="http://www.w3.org/2000/svg"
   xmlns:sodipodi="http://sodipodi.sourceforge.net/DTD/sodipodi-0.dtd"
   xmlns:inkscape="http://www.inkscape.org/namespaces/inkscape"
   width="64px"
   height="64px"
   id="svg3819"
   version="1.1"
   inkscape:version="0.48.4 r9939"
   sodipodi:docname="New document 7">
  <defs
     id="defs3821" />
  <sodipodi:namedview
     id="base"
     pagecolor="#ffffff"
     bordercolor="#666666"
     borderopacity="1.0"
     inkscape:pageopacity="0.0"
     inkscape:pageshadow="2"
     inkscape:zoom="5.5"
     inkscape:cx="28.818182"
     inkscape:cy="32"
     inkscape:current-layer="layer1-6"
     showgrid="true"
     inkscape:document-units="px"
     inkscape:grid-bbox="true"
     inkscape:window-width="1333"
     inkscape:window-height="744"
     inkscape:window-x="33"
     inkscape:window-y="24"
     inkscape:window-maximized="1" />
  <metadata
     id="metadata3824">
    <rdf:RDF>
      <cc:Work
         rdf:about="">
        <dc:format>image/svg+xml</dc:format>
        <dc:type
           rdf:resource="http://purl.org/dc/dcmitype/StillImage" />
        <dc:title></dc:title>
      </cc:Work>
    </rdf:RDF>
  </metadata>
  <g
     id="layer1"
     inkscape:label="Layer 1"
     inkscape:groupmode="layer">
    <g
       inkscape:label="Layer 1"
       id="layer1-6"
       transform="matrix(1.0533939,0,0,1.027104,-1.8268677,-1.0411841)">
      <g
         id="g3946"
         transform="translate(0.00388393,-9.8707442)">
        <path
           sodipodi:nodetypes="ccccc"
           inkscape:connector-curvature="0"
           id="path4819"
           style="fill:#3968ff;fill-opacity:1;stroke:#000000;stroke-width:0.33557856;stroke-linecap:square;stroke-linejoin:miter;stroke-miterlimit:4;stroke-opacity:0.35406704;stroke-dasharray:none"
           d="m 45.632833,63.07418 -24.830942,-0.13447 -2.25792,-11.250925 24.420586,0.06542 z" />
        <path
           inkscape:connector-curvature="0"
           id="path4821"
           style="fill:#3968ff;fill-opacity:1;stroke:#000000;stroke-width:0.33557856;stroke-linecap:square;stroke-linejoin:miter;stroke-miterlimit:4;stroke-opacity:0.35406704;stroke-dasharray:none"
           d="M 46.091456,41.715587 43.45971,27.278759 42.951434,48.551341 45.58318,62.98817 z" />
        <path
           sodipodi:nodetypes="ccccc"
           inkscape:connector-curvature="0"
           id="path4823"
           style="fill:#3968ff;fill-opacity:1;stroke:#000000;stroke-width:0.33557856;stroke-linecap:square;stroke-linejoin:miter;stroke-miterlimit:4;stroke-opacity:0.35406704;stroke-dasharray:none"
           d="m 43.486377,27.306731 -24.694837,0.08545 -0.241445,23.526707 24.350294,0.91283 z" />
        <path
           inkscape:connector-curvature="0"
           id="path4825"
           style="fill:#3968ff;fill-opacity:1;stroke:#000000;stroke-width:0.33557856;stroke-linecap:square;stroke-linejoin:miter;stroke-miterlimit:4;stroke-opacity:0.35406704;stroke-dasharray:none"
           d="m 46.063133,43.888963 -24.793205,-0.06169 -0.460382,19.268074 24.793206,0.06169 z" />
        <path
           sodipodi:nodetypes="cccccc"
           inkscape:connector-curvature="0"
           id="path4827"
           style="fill:#3968ff;fill-opacity:1;stroke:#000000;stroke-width:0.33557856;stroke-linecap:square;stroke-linejoin:miter;stroke-miterlimit:4;stroke-opacity:0.35406704;stroke-dasharray:none"
           d="m 21.397114,41.787551 -2.63241,-14.42352 -0.507806,21.252863 0.06132,3.06263 2.571096,11.36089 z" />
        <path
           sodipodi:nodetypes="ccccc"
           inkscape:connector-curvature="0"
           id="path4829"
           style="fill:#3968ff;fill-opacity:1;stroke:#000000;stroke-width:0.3382118;stroke-linecap:square;stroke-linejoin:miter;stroke-miterlimit:4;stroke-opacity:0.35406704;stroke-dasharray:none"
           d="M 46.009647,43.937383 21.316908,44.011959 18.784256,27.115328 43.769272,26.878377 z" />
        <path
           transform="matrix(0.11813107,0.00236569,-0.00201801,0.12244936,-9.9546408,-52.032677)"
           d="m 472.85713,707.36218 c 0,34.32056 -45.41112,62.14286 -101.42857,62.14286 -56.01746,0 -101.42858,-27.8223 -101.42858,-62.14286 0,-34.32055 45.41112,-62.14286 101.42858,-62.14286 56.01745,0 101.42857,27.82231 101.42857,62.14286 z"
           sodipodi:ry="62.14286"
           sodipodi:rx="101.42857"
           sodipodi:cy="707.36218"
           sodipodi:cx="371.42856"
           id="path5510"
           style="fill:#ffffff;fill-opacity:1;stroke:#000000;stroke-width:2.74099994;stroke-linecap:square;stroke-linejoin:miter;stroke-miterlimit:4;stroke-opacity:0.35406704;stroke-dasharray:none"
           sodipodi:type="arc" />
        <path
           style="fill:#3968ff;fill-opacity:1;stroke:#28568a;stroke-width:0.61398238;stroke-linecap:square;stroke-linejoin:miter;stroke-miterlimit:4;stroke-opacity:1;stroke-dasharray:none"
           d="M 43.960265,27.007164 56.543229,21.16189 62.054366,37.431312 46.176801,43.755627 z"
           id="rect4769-4"
           inkscape:connector-curvature="0"
           sodipodi:nodetypes="ccccc" />
        <path
           style="fill:#ffffff;stroke:#28568a;stroke-width:1.22908556;stroke-linecap:butt;stroke-linejoin:miter;stroke-miterlimit:4;stroke-opacity:1;stroke-dasharray:none"
           d="m 46.526094,43.535448 5.62417,-11.560017 -8.138309,-4.597306"
           id="path4843-4"
           inkscape:connector-curvature="0"
           sodipodi:nodetypes="ccc" />
        <path
           style="fill:#ffffff;stroke:#28568a;stroke-width:1.23739994;stroke-linecap:butt;stroke-linejoin:miter;stroke-miterlimit:4;stroke-opacity:1;stroke-dasharray:none"
           d="m 56.333338,21.379633 -4.001552,10.343771 9.539784,5.617141"
           id="path4843-4-8"
           inkscape:connector-curvature="0"
           sodipodi:nodetypes="ccc" />
        <path
           style="font-size:medium;font-style:normal;font-variant:normal;font-weight:normal;font-stretch:normal;text-indent:0;text-align:start;text-decoration:none;line-height:normal;letter-spacing:normal;word-spacing:normal;text-transform:none;direction:ltr;block-progression:tb;writing-mode:lr-tb;text-anchor:start;baseline-shift:baseline;color:#000000;fill:#28568a;fill-opacity:1;fill-rule:nonzero;stroke:none;stroke-width:0.83264697;marker:none;visibility:visible;display:inline;overflow:visible;enable-background:accumulate;font-family:Sans;-inkscape-font-specification:Sans"
           d="m 1.7342684,24.147605 0.035241,0.230913 2.5755299,16.856431 0.037995,0.248672 0.2742051,0.04409 C 10.160732,43.434739 15.773077,44.053759 21.215246,44.1899 l 0.295291,0.0475 -0.03798,-0.248671 -2.575536,-16.856427 -0.03523,-0.230914 -0.29531,-0.0475 C 13.122681,24.895885 7.6167226,23.584481 2.0084737,24.191692 z m 0.5845313,0.486158 C 7.787852,24.013817 13.105885,25.41409 18.362811,27.271627 l 2.504961,16.394616 C 15.588139,43.653988 10.278383,42.889488 4.8582145,41.092213 z"
           id="rect4769"
           inkscape:connector-curvature="0"
           sodipodi:nodetypes="cccccccccccccccccc" />
        <path
           style="fill:#3968ff;fill-opacity:1;fill-rule:nonzero;stroke:#28568a;stroke-width:0.50936466;stroke-linecap:butt;stroke-linejoin:miter;stroke-miterlimit:4;stroke-opacity:1;stroke-dasharray:none"
           d="M 18.29694,27.136894 C 17.280153,30.052387 10.161996,34.061511 7.5749767,33.781309 10.95684,34.928715 21.130538,38.888597 20.85511,43.775487"
           id="path4843"
           inkscape:connector-curvature="0"
           sodipodi:nodetypes="ccc" />
        <path
           sodipodi:nodetypes="csscsccssscsscssccccc"
           style="fill:#ffffff;fill-opacity:1;fill-rule:nonzero;stroke:#ffffff;stroke-width:0.1819157;stroke-linecap:square;stroke-linejoin:miter;stroke-miterlimit:4;stroke-opacity:0;stroke-dasharray:none"
           d="M 19.740377,43.619121 C 18.210423,43.595272 16.164852,43.531589 13.981676,43.158583 11.275294,42.696185 9.03033,42.299406 6.155742,41.448095 5.0073947,41.108013 4.8611554,41.049125 4.8553821,40.924479 4.8522383,40.847216 4.2886411,37.164935 3.6039047,32.741597 2.9191729,28.318262 2.3715497,24.684168 2.3869782,24.665839 c 0.015409,-0.01831 0.8791498,-0.05887 1.919389,-0.09009 2.1245649,-0.06411 2.9639155,-0.01247 4.9857495,0.304726 1.4001353,0.219663 2.6361953,0.481088 4.0182813,0.849875 1.535835,0.409805 4.442802,1.324202 4.577358,1.439822 0.07557,0.06493 -0.126189,0.474985 -0.483011,0.981702 -0.617202,0.876452 -1.778133,1.763162 -4.433178,3.386034 -1.433201,0.876026 -7.5297184,3.664392 -4.9178797,2.127482 2.3364887,-1.374883 -0.1375572,0.179918 0.1862858,0.455188 1.0406781,0.884501 3.9866989,1.648447 5.9034839,2.754447 2.953144,1.704001 4.113604,2.512725 5.052393,3.521021 0.836633,0.89858 1.345153,1.981075 1.37824,2.933907 0.01047,0.307022 0.0099,0.30797 -0.200441,0.302035 -0.116124,-0.0033 -0.401092,-0.009 -0.633271,-0.01286 l 0,0 z"
           id="path4943"
           inkscape:connector-curvature="0" />
      </g>
    </g>
  </g>
</svg>
